<svg width="63" height="62" viewBox="0 0 63 62" fill="none" xmlns="http://www.w3.org/2000/svg">
<path fill-rule="evenodd" clip-rule="evenodd" d="M33.6727 24.546V21.9614C33.6727 20.6914 34.5177 20.4018 35.1159 20.4018H38.7727V14.8687L33.74 14.839C28.1688 14.839 26.8901 18.9832 26.8901 21.6198V24.546H23.6671V31.0074H26.92V47.161H33.4259V31.0074H38.2642L38.5035 28.4674L38.8624 24.546H33.6801H33.6727Z" fill="white"/>
<path d="M31.2647 62C14.0503 62 0.0514221 48.0894 0.0514221 31C0.0514221 13.9106 14.0503 0 31.2647 0C33.3735 0 35.4823 0.207954 37.5388 0.623862C38.668 0.854097 39.7972 1.14375 40.889 1.50024C41.4423 1.67849 41.7415 2.26521 41.562 2.81481C41.3825 3.3644 40.7918 3.66148 40.2384 3.48323C39.2214 3.15644 38.167 2.88165 37.12 2.66627C35.2057 2.28007 33.2389 2.07954 31.2647 2.07954C15.2094 2.07954 2.15275 15.0544 2.15275 31C2.15275 46.9456 15.2169 59.913 31.2647 59.913C47.3126 59.913 60.3767 46.9382 60.3767 31C60.3767 26.2542 59.1952 21.5455 56.9593 17.3864C56.6826 16.8814 56.877 16.2501 57.393 15.9753C57.9015 15.708 58.5371 15.8936 58.8138 16.4061C61.2142 20.8622 62.4781 25.9126 62.4781 31C62.4781 48.0968 48.4717 62 31.2647 62Z" fill="white"/>
<path d="M52.4051 10.6799C52.1359 10.6799 51.8742 10.5834 51.6723 10.3828C50.9245 9.65501 50.1318 8.9643 49.3167 8.31816C48.6885 7.82055 48.0305 7.35266 47.3649 6.90704C46.8863 6.58769 46.7517 5.94154 47.0733 5.45879C47.3948 4.97604 48.0454 4.84978 48.5315 5.16914C49.2419 5.64447 49.9523 6.1495 50.6253 6.67681C51.5003 7.36751 52.3528 8.11021 53.1454 8.89003C53.5567 9.29109 53.5642 9.95208 53.1604 10.3606C52.9585 10.5685 52.6818 10.6725 52.4126 10.6725L52.4051 10.6799Z" fill="white"/>
</svg>
