<svg xmlns="http://www.w3.org/2000/svg" version="1.1" viewBox="-5.0 -10.0 110.0 135.0">
  <path
    d="m94.445 56.945h-5.5547c-0.76562 0-1.3906 0.62109-1.3906 1.3906 0 0.76953 0.62109 1.3906 1.3906 1.3906h2.2031l-18.871 18.871-5.9609-5.9609c-0.54297-0.54297-1.4219-0.54297-1.9648 0l-20.832 20.832c-0.54297 0.54297-0.54297 1.4219 0 1.9648 0.26953 0.26953 0.625 0.40625 0.98047 0.40625 0.35547 0 0.71094-0.13672 0.98047-0.40625l19.852-19.852 5.9609 5.9609c0.54297 0.54297 1.4219 0.54297 1.9648 0l19.852-19.852v2.2031c0 0.76953 0.62109 1.3906 1.3906 1.3906 0.76563 0 1.3906-0.62109 1.3906-1.3906v-5.5547c0-0.76953-0.62109-1.3906-1.3906-1.3906z" />
  <path
    d="m30.555 62.5h-11.109c-0.76562 0-1.3906 0.62109-1.3906 1.3906v16.668c0 0.76953 0.62109 1.3906 1.3906 1.3906h11.109c0.76562 0 1.3906-0.62109 1.3906-1.3906v-16.668c0-0.76953-0.62109-1.3906-1.3906-1.3906zm-1.3867 16.668h-8.332v-13.891h8.332z" />
  <path
    d="m51.391 80.555v-30.555c0-0.76953-0.62109-1.3906-1.3906-1.3906h-11.109c-0.76562 0-1.3906 0.62109-1.3906 1.3906v30.555c0 0.76953 0.62109 1.3906 1.3906 1.3906h11.109c0.76562 0 1.3906-0.62109 1.3906-1.3906zm-2.7812-1.3867h-8.332v-27.777h8.332z" />
  <path
    d="m58.332 31.945c-0.76562 0-1.3906 0.62109-1.3906 1.3906v41.332c0 0.76953 0.62109 1.3906 1.3906 1.3906 0.76562 0 1.3906-0.62109 1.3906-1.3906v-39.945h8.332v37.168c0 0.76953 0.62109 1.3906 1.3906 1.3906 0.76563 0 1.3906-0.62109 1.3906-1.3906v-38.555c0-0.76953-0.62109-1.3906-1.3906-1.3906z" />
  <path
    d="m77.777 70.5c0.76562 0 1.3906-0.62109 1.3906-1.3906v-48.277h8.332v33.332c0 0.76953 0.62109 1.3906 1.3906 1.3906 0.76562 0 1.3906-0.62109 1.3906-1.3906l-0.003906-34.719c0-0.76953-0.62109-1.3906-1.3906-1.3906h-11.109c-0.76562 0-1.3906 0.62109-1.3906 1.3906v49.668c0 0.76953 0.62109 1.3906 1.3906 1.3906z" />
  <path
    d="m34.918 55.375c-8.8203-1.2617-15.473-8.9492-15.473-17.875 0-9.957 8.0977-18.055 18.055-18.055 7.4141 0 13.988 4.4453 16.754 11.324 0.28516 0.71094 1.0938 1.0547 1.8047 0.76953 0.71094-0.28516 1.0547-1.0938 0.76953-1.8047-3.0156-7.5078-9.9727-12.496-17.953-13.016 0-0.019531 0.011719-0.035156 0.011719-0.050781v-9.6641c13.207 0.60156 24.652 9.6797 28.102 22.523 0.19922 0.74219 0.96484 1.1797 1.7031 0.98047 0.74219-0.19922 1.1797-0.96094 0.98047-1.7031-3.8984-14.508-17.129-24.641-32.176-24.641-18.375 0.003907-33.328 14.957-33.328 33.336 0 9.457 4.0469 18.508 11.102 24.828 0.26562 0.23828 0.59766 0.35547 0.92578 0.35547 0.38281 0 0.76172-0.15625 1.0352-0.46094 0.51172-0.57031 0.46484-1.4492-0.10938-1.9609-6.4688-5.793-10.176-14.086-10.176-22.758 0-7.9258 3.0352-15.156 8-20.59l6.8398 6.8398c0.019532 0.019532 0.042969 0.023438 0.0625 0.042969-3.2148 3.668-5.1836 8.457-5.1836 13.707 0 10.301 7.6758 19.168 17.859 20.625 0.066406 0.007813 0.13281 0.011719 0.19922 0.011719 0.67969 0 1.2734-0.5 1.3711-1.1914 0.10938-0.75781-0.41797-1.4648-1.1797-1.5703zm-18.008-40.43c5.1172-4.6758 11.82-7.6328 19.203-7.9648v9.6875c0 0.023437 0.011719 0.046875 0.015625 0.070312-4.7109 0.30859-8.9883 2.1836-12.332 5.1133-0.015625-0.019531-0.023437-0.042968-0.042969-0.0625z" />
</svg>