<svg xmlns="http://www.w3.org/2000/svg" version="1.1" viewBox="-5.0 -10.0 110.0 135.0">
  <path
    d="m76.199 33.199c-3.6992 0-7.1016 1.5-9.6016 3.8984l-10-7.5c0.39844-1.1992 0.5-2.3984 0.5-3.6992 0-7.1016-5.8008-12.898-12.898-12.898-7.1016 0-12.898 5.8008-12.898 12.898 0 7.1016 5.8008 12.898 12.898 12.898 5.1016 0 9.5-3 11.602-7.3008l9.3984 7c-1.8008 2.3008-2.8984 5.3008-2.8984 8.3984 0 2.3984 0.60156 4.6016 1.6992 6.6016l-18.801 9.8008c-2.3984-7.1992-9.1992-12.5-17.199-12.5-9.8984 0.10156-18 8.2031-18 18.203s8.1016 18.102 18.102 18.102 18-8.1016 18-18.102c0-1.1992-0.10156-2.5-0.39844-3.6016l19.398-10.102c2.5 3.3984 6.5 5.6016 11 5.6016 7.6992-0.097657 13.898-6.2969 13.898-13.898s-6.1992-13.801-13.801-13.801zm-31.898 3.6016c-6 0-10.898-4.8984-10.898-10.898s4.8984-10.898 10.898-10.898 10.898 4.8984 10.898 10.898c0 5.9961-4.8984 10.898-10.898 10.898zm-16.199 48.301c-8.9023 0-16.102-7.2031-16.102-16.102s7.1992-16.102 16.102-16.102c8.8984 0 16 7.2031 16 16.102s-7.2031 16.102-16 16.102zm48.098-26.301c-6.5 0-11.801-5.3008-11.801-11.801s5.3008-11.801 11.801-11.801 11.801 5.3008 11.801 11.801-5.3008 11.801-11.801 11.801z" />
  <path
    d="m76.199 46.602c2.1992 0 4-1.8008 4-4 0-2.1992-1.8008-4-4-4s-4 1.8008-4 4c0 2.1992 1.8008 4 4 4zm0-5.9023c1.1016 0 2 0.89844 2 2 0 1.1016-0.89844 2-2 2-1.1016 0-2-0.89844-2-2 0-1.0977 0.90234-2 2-2z" />
  <path
    d="m79.699 46.898h-7.1016c-2.3008 0-4.1992 1.8984-4.1992 4.1992 0 2.3008 1.8984 4.1992 4.1992 4.1992h7.1016c2.3008 0 4.1992-1.8984 4.1992-4.1992 0-2.2969-1.7969-4.1992-4.1992-4.1992zm0 6.4023h-7.1016c-1.1992 0-2.1992-1-2.1992-2.1992 0-1.1992 1-2.1992 2.1992-2.1992h7.1016c1.1992 0 2.1992 1 2.1992 2.1992 0 1.1992-0.89844 2.1992-2.1992 2.1992z" />
  <path
    d="m44.301 25.602c2.1016 0 3.8008-1.6992 3.8008-3.8008 0-2.1016-1.6992-3.8008-3.8008-3.8008-2.1016 0-3.8008 1.6992-3.8008 3.8008 0 2.0977 1.6992 3.8008 3.8008 3.8008zm0-5.5c1 0 1.8008 0.80078 1.8008 1.8008s-0.80078 1.8008-1.8008 1.8008-1.8008-0.80078-1.8008-1.8008c0-1.0039 0.80078-1.8008 1.8008-1.8008z" />
  <path
    d="m47.602 25.699h-6.6016c-2.1992 0-4 1.8008-4 4s1.8008 4 4 4h6.6016c2.1992 0 4-1.8008 4-4s-1.8008-4-4-4zm0 6h-6.6016c-1.1016 0-2-0.89844-2-2 0-1.1016 0.89844-2 2-2h6.6016c1.1016 0 2 0.89844 2 2 0 1.1016-0.90234 2-2 2z" />
  <path
    d="m28.102 68.102c2.6992 0 4.8984-2.1992 4.8984-4.8984s-2.1992-4.8984-4.8984-4.8984c-2.6992 0-4.8984 2.1992-4.8984 4.8984-0.003906 2.6953 2.0977 4.8984 4.8984 4.8984zm0-7.9023c1.6016 0 2.8984 1.3008 2.8984 2.8984 0 1.6016-1.3008 2.8984-2.8984 2.8984-1.6016 0-2.8984-1.3008-2.8984-2.8984-0.10156-1.4961 1.1953-2.8984 2.8984-2.8984z" />
  <path
    d="m32.801 69.102h-9.3984c-2.8984 0-5.3008 2.3984-5.3008 5.3008 0 2.8984 2.3984 5.3008 5.3008 5.3008h9.3984c2.8984 0 5.3008-2.3984 5.3008-5.3008s-2.4023-5.3008-5.3008-5.3008zm0 8.5977h-9.3984c-1.8008 0-3.3008-1.5-3.3008-3.3008 0-1.8008 1.5-3.3008 3.3008-3.3008h9.3984c1.8008 0 3.3008 1.5 3.3008 3.3008 0 1.8008-1.5 3.3008-3.3008 3.3008z" />
</svg>