<svg xmlns="http://www.w3.org/2000/svg" version="1.1" viewBox="-5.0 -10.0 110.0 135.0">
  <path
    d="m80.117 58.945-10.953-9.5508s-0.011718-0.003906-0.015624-0.007812c-0.015626-0.011719-0.03125-0.019531-0.050782-0.03125-0.035156-0.023438-0.066406-0.050781-0.10547-0.066407-0.007813-0.003906-0.015626-0.003906-0.019532-0.003906-0.007812-0.003906-0.015625-0.003906-0.023437-0.007812-0.023438-0.007813-0.046875-0.011719-0.070313-0.019532-0.035156-0.007812-0.074218-0.015624-0.10938-0.015624-0.011719 0-0.019531-0.003907-0.027343-0.003907-0.011719 0-0.019532 0.007813-0.03125 0.007813-0.019532 0-0.035157 0-0.054688 0.003906-0.039062 0.003906-0.078125 0.019531-0.11328 0.03125-0.023438 0.007812-0.046875 0.015625-0.070313 0.023438-0.011718 0.003906-0.023437 0.007812-0.035156 0.011718l-1.8398 1.0039v-20.859c0-0.16016-0.0625-0.31641-0.17188-0.43359l-8.4297-9.1055s-0.007813-0.003906-0.011719-0.007813c-0.019531-0.019531-0.042969-0.03125-0.0625-0.050781-0.027344-0.019531-0.050781-0.042969-0.078125-0.058593-0.015625-0.011719-0.03125-0.019532-0.050781-0.027344-0.023438-0.011719-0.054688-0.015625-0.078125-0.023438-0.027344-0.007812-0.054688-0.019531-0.085938-0.027344-0.023437-0.003906-0.042968-0.003906-0.066406-0.003906-0.011719 0-0.019531-0.007812-0.03125-0.007812-0.019531 0-0.039062 0.011718-0.058594 0.011718-0.027344 0.003907-0.050781 0-0.074218 0.003907-0.023438 0.003906-0.042969 0.015625-0.066407 0.023437-0.035156 0.011719-0.066406 0.023438-0.097656 0.042969-0.019531 0.011719-0.042969 0.015625-0.0625 0.027344l-10.977 7.4219v-7.1562c0-0.16016-0.0625-0.31641-0.17187-0.43359l-8.4297-9.1055s-0.007812-0.003906-0.011719-0.007812c-0.019531-0.019531-0.042969-0.03125-0.0625-0.046875-0.027343-0.019532-0.050781-0.042969-0.078125-0.058594-0.015625-0.011719-0.03125-0.019531-0.050781-0.027344-0.023437-0.011718-0.054687-0.015625-0.078125-0.023437-0.027344-0.007813-0.054688-0.019531-0.085938-0.027344-0.023437-0.003906-0.042968-0.003906-0.066406-0.003906-0.011718 0-0.019531-0.007813-0.03125-0.007813-0.019531 0-0.039062 0.011719-0.058594 0.011719-0.027343 0.003906-0.050781 0-0.074218 0.003906-0.023438 0.003907-0.042969 0.015625-0.066406 0.023438-0.035157 0.011719-0.066407 0.027343-0.097657 0.042969-0.019531 0.011718-0.042969 0.015624-0.058593 0.027343l-11.969 8.0938c-0.082032 0.054688-0.14453 0.12891-0.19141 0.21094-0.015625 0.023437-0.019531 0.050781-0.03125 0.074219-0.027343 0.0625-0.042969 0.125-0.046875 0.19531 0 0.015625-0.011718 0.03125-0.011718 0.046875v28.867l-4.5273 2.4727c-0.09375 0.050781-0.16406 0.12891-0.21875 0.21094-0.015625 0.023438-0.023438 0.046875-0.039063 0.074219-0.035156 0.070313-0.054687 0.14453-0.0625 0.22656 0 0.019531-0.015625 0.03125-0.015625 0.050781v38.031c0 0.35156 0.28516 0.63672 0.63672 0.63672h59.395c0.35156 0 0.63672-0.28516 0.63672-0.63672v-29.586c0-0.18359-0.078125-0.35938-0.21875-0.48047zm-49.531-42.762 5.9102-3.9961v4.6055l-10.695 6.5781v-3.9531zm-9.6484 42.262 18.023-8.9531v6.4648l-18.023 7.3984zm44.387-15.742-7.1562-5.7695v-3.8984l7.1562 6.1836zm-11.496 14.586v-4.9922c0-0.11719-0.042969-0.22656-0.10156-0.32422l3.168-2.0547v5.6992l-3.0664 1.6758zm25.23 16.363-9.6797-5.1914v-4.6094l9.6797 5.8633zm-58.121-8.918 18.023-7.3984v6.1914l-18.023 6.1445zm31.617-12.145v4.0703l-12.316-8.5273v-6.2852zm-26.758-22.902 10.695-6.1289v3.7773l-10.695 5.7227zm11.969-0.61719 7.1562 5.9023v3.5898l-7.1562-4.9609zm8.4297 16.285v-1.4766l10.695-5.5859v3.7812l-9.0508 4.7188zm10.695-8.5-10.695 5.5859v-3.3906l10.695-6.293zm-16.656 20.664 12.316 7.4648v5.2266l-12.316-6.6094v-6.0859zm12.316 0.69141v5.2812l-12.316-7.4648v-6.3438zm-12.316 6.8398 12.316 6.6094v5.2656l-12.316-5.7578zm13.594 4.4844 14.277-5.8594v4.7188l-14.277 4.8672zm14.277-7.2383-14.277 5.8594v-3.6953l14.277-7.0898zm0-6.3477-14.277 7.0898v-4.293l14.277-7.7969zm-11.211-7.543-4.1328 2.6797-3.8867-3.3906 8.0195-4.1797zm0-17.121-10.695 6.293v-3.3359l10.695-6.5781zm0-5.1172-10.695 6.5781v-3.9531l10.695-7.2305zm-11.969 7.1562-7.1562-5.9023v-3.5859l7.1562 6.0273zm-8.4297-11.227-10.695 6.1289v-3.3516l10.695-6.5781zm-10.695 12.41 10.695-5.7227v4.0703l-10.695 5.0664zm11.969 6.2148v-5.5703l7.1562 4.9609v4.1055l-0.0625-0.027344-4.8438-4.2227s-0.011719-0.003906-0.015625-0.007812c-0.015625-0.011719-0.03125-0.019532-0.050781-0.03125-0.035156-0.023438-0.066406-0.050782-0.10547-0.066407-0.007812-0.003906-0.015625-0.003906-0.019531-0.003906-0.007813-0.003906-0.015625-0.003906-0.023437-0.007813-0.023438-0.007812-0.046876-0.011718-0.070313-0.019531-0.035156-0.007812-0.074219-0.015625-0.10938-0.015625-0.011719 0-0.019531-0.003906-0.027344-0.003906-0.011718 0-0.019531 0.007812-0.03125 0.007812-0.019531 0-0.035156 0-0.054687 0.003907-0.039063 0.003906-0.078125 0.019531-0.11719 0.03125-0.023437 0.007812-0.046875 0.015625-0.066406 0.023437-0.011719 0.003906-0.023437 0.007813-0.035156 0.011719l-1.5273 0.83203zm-16.832 30.297 18.023-6.1445v6.2109l-18.023 4.9023zm19.301 1.5547 12.316 5.7578v5.7305l-12.316-4.1094zm13.594 2.0273 14.277-4.8672v4.7383l-14.277 3.8828zm15.551-4.6914 9.6797 5.1914v3.9766l-9.6797-4.5234zm9.6797-1.6797-9.6797-5.8633v-4.8086l9.6797 6.6992zm-20.891-13.305v-4.7891l3.4062 2.9297zm0-16.352 7.1562 5.7695v3.4844l-7.1562-5.6758zm7.1562-1.0352-7.1562-6.1836v-3.4492l7.1562 6.1328zm-20.398-9.3438-7.1562-6.0273v-3.6289l7.1562 6.1328zm-19.125 11.141 10.695-5.0664v3.4883l-10.695 4.9844zm13.164 2.1875v6.5547l-18.023 8.9531v-5.6641l18.023-9.8398zm-18.023 35.785 18.023-4.9023v7.4492l-18.023 2.4922zm31.617 8.0977v2.9766h-12.316v-7.0859zm1.2734-5.7266 14.277-3.8828v5.7305l-14.277 1.9727v-3.8242zm15.551-3.7148 9.6797 4.5234v4.3672l-9.6797-3.2305zm9.6797-13.254-9.6797-6.6992v-4.7305l9.6797 8.4414zm-16.293-10.293-4.6016-3.957v-4.6758l7.1562 5.6758v1.5625l-2.5586 1.3945zm2.5586-20.051-7.1562-6.1328v-4.2422l7.1562 7.7305v2.6484zm-20.398-9.3672-7.1562-6.1328v-4.2422l7.1562 7.7305v2.6484zm-19.125 21.145 10.695-4.9844v2.2617l-10.695 5.8398zm-4.8594 39.488 18.023-2.4922v7.2383h-18.023v-4.75zm32.891 1.1523 14.277-1.9727v5.5664h-14.277zm15.551 3.5938v-5.4141l9.6797 3.2305v2.1836z" />
</svg>