<svg xmlns="http://www.w3.org/2000/svg" version="1.1" viewBox="-5.0 -10.0 110.0 135.0">
  <path
    d="m95.312 56.867c0-1.3438-0.53125-2.6328-1.4688-3.582-0.96875-0.94922-2.25-1.4805-3.5938-1.4805h-33.125c-1.3438 0-2.625 0.53125-3.5625 1.4805-0.9375 0.94922-1.5 2.2383-1.5 3.582v26.668c0 1.3398 0.5625 2.6289 1.5 3.5781s2.2188 1.4844 3.5625 1.4844h33.125c1.3438 0 2.625-0.53516 3.5938-1.4844 0.9375-0.94922 1.4688-2.2383 1.4688-3.5781v-26.668zm-47.375 0c0-1.3438-0.53125-2.6328-1.4688-3.582-0.96875-0.94922-2.25-1.4805-3.5938-1.4805h-33.125c-1.3438 0-2.625 0.53125-3.5625 1.4805-0.96875 0.94922-1.5 2.2383-1.5 3.582v26.668c0 1.3398 0.53125 2.6289 1.5 3.5781 0.9375 0.94922 2.2188 1.4844 3.5625 1.4844h33.125c1.3438 0 2.625-0.53516 3.5938-1.4844 0.9375-0.94922 1.4688-2.2383 1.4688-3.5781v-26.668zm44.25 0v26.668c0 0.51172-0.1875 1.0039-0.5625 1.3672-0.375 0.36328-0.84375 0.57031-1.375 0.57031h-33.125c-0.5 0-1-0.20703-1.3438-0.57031-0.375-0.36328-0.59375-0.85547-0.59375-1.3672v-26.668c0-0.51563 0.21875-1.0078 0.59375-1.375 0.34375-0.35938 0.84375-0.5625 1.3438-0.5625h33.125c0.53125 0 1 0.20312 1.375 0.5625 0.375 0.36719 0.5625 0.85937 0.5625 1.375zm-47.375 0v26.668c0 0.51172-0.1875 1.0039-0.5625 1.3672-0.34375 0.36328-0.84375 0.57031-1.375 0.57031h-33.125c-0.5 0-1-0.20703-1.375-0.57031-0.34375-0.36328-0.5625-0.85547-0.5625-1.3672v-26.668c0-0.51563 0.21875-1.0078 0.5625-1.375 0.375-0.35938 0.875-0.5625 1.375-0.5625h33.125c0.53125 0 1.0312 0.20312 1.375 0.5625 0.375 0.36719 0.5625 0.85937 0.5625 1.375zm-20.062 11.77h-7.4062c-0.84375 0-1.5625 0.69922-1.5625 1.5625s0.71875 1.5625 1.5625 1.5625h7.4062v7.4102c0 0.86328 0.71875 1.5625 1.5625 1.5625 0.875 0 1.5625-0.69922 1.5625-1.5625v-7.4102h7.4062c0.875 0 1.5625-0.69922 1.5625-1.5625s-0.6875-1.5625-1.5625-1.5625h-7.4062v-7.4102c0-0.85937-0.6875-1.5625-1.5625-1.5625-0.84375 0-1.5625 0.70313-1.5625 1.5625zm57.906 0h-17.938c-0.84375 0-1.5625 0.69922-1.5625 1.5625s0.71875 1.5625 1.5625 1.5625h17.938c0.875 0 1.5625-0.69922 1.5625-1.5625s-0.6875-1.5625-1.5625-1.5625zm-34.719-52.172c0-1.3398-0.53125-2.6289-1.4688-3.5781-0.96875-0.94922-2.25-1.4844-3.5938-1.4844h-33.125c-1.3438 0-2.625 0.53516-3.5625 1.4844-0.96875 0.94922-1.5 2.2383-1.5 3.5781v26.668c0 1.3438 0.53125 2.6328 1.5 3.582 0.9375 0.94922 2.2188 1.4805 3.5625 1.4805h33.125c1.3438 0 2.625-0.53125 3.5938-1.4805 0.9375-0.94922 1.4688-2.2383 1.4688-3.582v-26.668zm47.375 0c0-1.3398-0.53125-2.6289-1.4688-3.5781-0.96875-0.94922-2.25-1.4844-3.5938-1.4844h-33.125c-1.3438 0-2.625 0.53516-3.5625 1.4844s-1.5 2.2383-1.5 3.5781v26.668c0 1.3438 0.5625 2.6328 1.5 3.582 0.9375 0.94922 2.2188 1.4805 3.5625 1.4805h33.125c1.3438 0 2.625-0.53125 3.5938-1.4805 0.9375-0.94922 1.4688-2.2383 1.4688-3.582v-26.668zm-50.5 0v26.668c0 0.51563-0.1875 1.0078-0.5625 1.375-0.34375 0.35938-0.84375 0.5625-1.375 0.5625h-33.125c-0.5 0-1-0.20312-1.375-0.5625-0.34375-0.36719-0.5625-0.85937-0.5625-1.375v-26.668c0-0.51172 0.21875-1.0039 0.5625-1.3672 0.375-0.36328 0.875-0.57031 1.375-0.57031h33.125c0.53125 0 1.0312 0.20703 1.375 0.57031 0.375 0.36328 0.5625 0.85547 0.5625 1.3672zm47.375 0v26.668c0 0.51563-0.1875 1.0078-0.5625 1.375-0.375 0.35938-0.84375 0.5625-1.375 0.5625h-33.125c-0.5 0-1-0.20312-1.3438-0.5625-0.375-0.36719-0.59375-0.85937-0.59375-1.375v-26.668c0-0.51172 0.21875-1.0039 0.59375-1.3672 0.34375-0.36328 0.84375-0.57031 1.3438-0.57031h33.125c0.53125 0 1 0.20703 1.375 0.57031 0.375 0.36328 0.5625 0.85547 0.5625 1.3672zm-18.594 22.238h0.21875c0.84375 0 1.5625-0.69922 1.5625-1.5625s-0.71875-1.5625-1.5625-1.5625h-0.21875c-0.84375 0-1.5625 0.69922-1.5625 1.5625s0.71875 1.5625 1.5625 1.5625zm-47.281-11.113-5.2188-5.2383c-0.625-0.60937-1.625-0.60937-2.2188 0-0.625 0.60938-0.625 1.5977 0 2.207l5.25 5.2422-5.25 5.2383c-0.625 0.60938-0.625 1.6016 0 2.2109 0.59375 0.60938 1.5938 0.60938 2.2188 0l5.2188-5.2422 5.25 5.2422c0.625 0.60938 1.5938 0.60938 2.2188 0 0.59375-0.60938 0.59375-1.6016 0-2.2109l-5.25-5.2383 5.25-5.2422c0.59375-0.60938 0.59375-1.5977 0-2.207-0.625-0.60937-1.5938-0.60937-2.2188 0zm56.344 0.64844h-17.938c-0.84375 0-1.5625 0.69922-1.5625 1.5625s0.71875 1.5625 1.5625 1.5625h17.938c0.875 0 1.5625-0.69922 1.5625-1.5625s-0.6875-1.5625-1.5625-1.5625zm-9.0625-4.2148h0.21875c0.84375 0 1.5625-0.70313 1.5625-1.5625 0-0.86328-0.71875-1.5625-1.5625-1.5625h-0.21875c-0.84375 0-1.5625 0.69922-1.5625 1.5625 0 0.85937 0.71875 1.5625 1.5625 1.5625z"
    fill-rule="evenodd" />
</svg>