<svg xmlns="http://www.w3.org/2000/svg" xmlns:xlink="http://www.w3.org/1999/xlink" version="1.1" x="0px" y="0px"
  viewBox="0 0 100 125" style="enable-background:new 0 0 100 100;" xml:space="preserve">
  <path
    d="M47.61,46.85c0.3-0.53,0.12-1.2-0.4-1.5c-0.52-0.3-1.2-0.12-1.5,0.4c-2.22,3.86-1.74,8.7,1.21,12.04  c0.22,0.25,0.52,0.37,0.83,0.37c0.26,0,0.52-0.09,0.73-0.27c0.46-0.4,0.5-1.1,0.1-1.55C46.24,53.71,45.86,49.9,47.61,46.85z" />
  <path
    d="M90.31,66.79l-10.72-7.45c-0.35-0.24-0.75-0.36-1.14-0.36c-0.45,0-0.9,0.16-1.26,0.45l-2.58-1.93  c0.92-2.18,1.43-4.58,1.43-7.09c0-5.31-2.27-10.07-5.87-13.42V17.85c0-2.93-2.39-5.32-5.32-5.32H20.07c-2.93,0-5.32,2.39-5.32,5.32  v62.08c0,2.93,2.39,5.32,5.32,5.32h44.78c2.93,0,5.32-2.39,5.32-5.32V64.04h-0.23c0.39-0.35,0.77-0.72,1.13-1.1l2.56,1.92  c-0.07,0.7,0.22,1.42,0.84,1.85l10.72,7.45c0.7,0.48,1.49,0.72,2.28,0.72c1.27,0,2.51-0.6,3.29-1.72l0.56-0.8  C92.57,70.55,92.12,68.05,90.31,66.79z M73.55,50.41c0,8.72-7.1,15.82-15.82,15.82s-15.82-7.1-15.82-15.82s7.1-15.82,15.82-15.82  S73.55,41.69,73.55,50.41z M67.67,79.93c0,1.56-1.27,2.82-2.82,2.82H20.07c-1.56,0-2.82-1.27-2.82-2.82V17.85  c0-1.56,1.27-2.82,2.82-2.82h44.78c1.56,0,2.82,1.27,2.82,2.82v17.2c-2.87-1.86-6.28-2.95-9.95-2.95c-6.11,0-11.5,3-14.83,7.6  c-0.19-0.11-0.4-0.2-0.63-0.2H26.69c-0.69,0-1.25,0.56-1.25,1.25S26,42,26.69,42h14.78c-1.31,2.52-2.06,5.38-2.06,8.42  c0,0.44,0.04,0.86,0.07,1.29H26.69c-0.69,0-1.25,0.56-1.25,1.25s0.56,1.25,1.25,1.25h13.12c0.8,3.81,2.8,7.18,5.58,9.71h-18.7  c-0.69,0-1.25,0.56-1.25,1.25s0.56,1.25,1.25,1.25h21.68c0.12,0,0.23-0.04,0.35-0.07c2.66,1.51,5.73,2.38,9.01,2.38  c3.67,0,7.08-1.09,9.95-2.95V79.93z M73.72,59.33l2.26,1.7l-1.41,2.04l-2.22-1.66C72.85,60.75,73.32,60.06,73.72,59.33z   M89.26,70.93l-0.56,0.8c-0.28,0.4-0.74,0.64-1.24,0.64c-0.21,0-0.53-0.05-0.85-0.27l-10.31-7.16l2.27-3.27l10.31,7.16  c0.33,0.23,0.55,0.57,0.62,0.97C89.57,70.21,89.49,70.61,89.26,70.93z" />
  <path
    d="M26.69,28.76h14.56c0.69,0,1.25-0.56,1.25-1.25s-0.56-1.25-1.25-1.25H26.69c-0.69,0-1.25,0.56-1.25,1.25  S26,28.76,26.69,28.76z" />
  <path
    d="M59.81,49.23l-1.9-0.89c-0.48-0.41-0.81-0.95-0.92-1.52c-0.11-0.54,0-1.05,0.3-1.43s0.76-0.6,1.32-0.63  c0.62-0.03,1.26,0.19,1.8,0.61c0.54,0.43,1.33,0.33,1.75-0.21c0.43-0.54,0.33-1.33-0.21-1.75c-0.47-0.37-1-0.65-1.54-0.85v-1.51  c0-0.69-0.56-1.25-1.25-1.25s-1.25,0.56-1.25,1.25v1.3c-1.04,0.18-1.95,0.69-2.58,1.5c-0.75,0.96-1.03,2.19-0.78,3.45  c0.23,1.2,0.92,2.29,1.93,3.09l2.35,1.14l0.15,0.06c1.16,0.37,1.84,1.51,1.51,2.52c-0.32,1-1.52,1.5-2.74,1.15  c-1.05-0.3-1.81-1.62-2.02-2.1c-0.27-0.63-1-0.93-1.63-0.67c-0.64,0.27-0.94,1-0.67,1.64c0.12,0.29,1.25,2.85,3.63,3.53  c0.29,0.08,0.57,0.13,0.86,0.17V59c0,0.69,0.56,1.25,1.25,1.25S60.4,59.69,60.4,59v-1.52c1.14-0.48,2.06-1.39,2.45-2.61  C63.59,52.57,62.23,50.06,59.81,49.23z" />

</svg>