<svg xmlns="http://www.w3.org/2000/svg" version="1.1" viewBox="-5.0 -10.0 110.0 135.0">
  <path
    d="m88.879 52.57-10.777-24.031c-0.23828-0.53125-0.66016-0.92969-1.2109-1.1289-0.53906-0.19922-1.1289-0.17969-1.6484 0.070313l-6.9219 3.2305c-0.51953 0.23828-0.91016 0.67187-1.1094 1.2109-0.16016 0.46094-0.16016 0.94141-0.011719 1.3984-1.1094 0.32031-2.6484 0.48047-3.5391 0.25-0.17188-0.050781-0.82812-0.33984-1.3984-0.58984-2.8984-1.2891-5.8984-2.5391-7.8906-2.4609-1.0898 0.039063-2.5117 0.37891-4.4102 1.0586-1.6016-0.98828-4.1211-1.9297-5.4805-1.9492-2.6016-0.039062-6.7891 2.0312-9.5781 3.4102-0.55078 0.26953-1.1484 0.57031-1.5586 0.75l0.10938-0.21875c0.25-0.51953 0.26953-1.1016 0.078125-1.6406-0.19141-0.53906-0.58984-0.96875-1.1094-1.2109l-6.9219-3.2305c-0.51953-0.23828-1.1094-0.26953-1.6484-0.070312-0.53906 0.19922-0.96875 0.60156-1.2109 1.1289l-10.77 24.023c-0.48047 1.0586-0.011719 2.3203 1.0508 2.8086l6.4219 2.9688c0.28906 0.12891 0.58984 0.19922 0.89062 0.19922 0.80078 0 1.5703-0.44922 1.9414-1.2188l0.37891-0.80859c2.3789 2.6602 4.9297 4.2305 6.3594 4.9688-0.80859 1.4219-1.2891 3.5 0.44922 5.1719 1.1602 1.1211 2.75 1.0703 3.9102 0.82031 0.039062 1.1016 0.37891 2.5 1.6719 3.3711 0.85156 0.57031 1.8086 0.60156 2.5703 0.48828 0.14844 0.85156 0.57031 1.7695 1.5117 2.3594 1.1211 0.71094 2.4102 0.69922 3.2812 0.57812 0.32812 0.64062 0.92969 1.4609 2.0312 1.9883 0.60156 0.28906 1.1797 0.41016 1.7305 0.41016 1.6094 0 2.9297-1.0312 3.7109-1.8008 0.76953 0.57812 2.0312 1.2109 3.9297 1.2188 1.6914-0.019531 2.6484-1.0312 3.1211-2.0312 1.0117 0.41016 2.4805 0.76172 3.6602 0.070312 1.1406-0.67187 1.8594-1.9688 2.2305-2.8398 0.87891 0.070312 2.25-0.058594 3.6016-1.0586 1.2617-0.92969 1.7109-2.1602 1.8516-3.0781 1.0898 0.10156 2.6914-0.050781 4.0312-1.3594 1.6797-1.6406 0.83984-4.2188 0.23047-5.5586 1.0508-0.71875 2.8984-2.0703 3.8203-3.2383 0.44922-0.57812 1.0312-1.0312 1.5391-1.3594l0.80859 1.7109c0.35938 0.76953 1.1406 1.2188 1.9414 1.2188 0.30078 0 0.60156-0.058593 0.89062-0.19922l6.4219-2.9688c1.0312-0.51172 1.5-1.7734 1.0195-2.832zm-68.52 3.8984c-0.03125 0.070312-0.10938 0.10156-0.17969 0.070312l-6.4219-2.9688c-0.070312-0.03125-0.10156-0.10937-0.070312-0.17969l10.789-24.031c0.019532-0.039063 0.039063-0.058594 0.078126-0.070313 0.019531-0.011718 0.03125-0.011718 0.050781-0.011718s0.039062 0 0.058593 0.011718l6.9219 3.2305c0.03125 0.019531 0.058593 0.039063 0.070312 0.078125 0.011719 0.019532 0.011719 0.058594-0.011719 0.10156zm13.449 8.7695c-0.5 0.19922-2.2188 0.82031-3.0703-0.011719-1.3789-1.3281 0.17188-3.1797 0.39844-3.4414 1.1094-1.1016 4.5586-3.8203 6.1914-2.4219 0.46094 0.39844 0.69922 0.78906 0.71875 1.1914 0.03125 0.64062-0.46094 1.4805-1.5 2.5703-0.82812 0.875-2.0781 1.7031-2.7383 2.1133zm4.2227 3.9023c-0.30078 0.12891-1.3594 0.46875-1.9609 0.058594-0.89062-0.60156-0.83984-1.9219-0.76172-2.5508 0.78125-0.51172 1.8789-1.2891 2.6992-2.1406 0.5-0.51953 1.0391-1.1406 1.4414-1.8281 0.55078-0.12109 1.6602-0.21094 2.4492 0.85937 0.66016 0.87891 0.44922 1.5586-0.98828 3.2695-1.0117 1.2031-2.6602 2.2109-2.8789 2.332zm4.418 3.0898c-0.53906 0.12891-1.6211 0.26172-2.3516-0.21094-0.53125-0.33984-0.62891-0.98828-0.64062-1.4219 0.69922-0.44922 2.0391-1.3906 2.9805-2.5117 0.64844-0.76953 1.4883-1.7695 1.7383-2.9414 0.57031 0.070313 1.2305 0.26172 1.6406 0.67969 0.98047 1.0195 1.0898 1.5391-0.039062 3.0391-0.87891 1.1953-2.7656 2.8867-3.3281 3.3672zm7.1992-0.69141c-0.019532 0.12891-0.050782 0.25-0.078126 0.37109l-0.69141 0.96094c-0.019531 0.03125-1.8281 2.5-3.6797 1.6094-0.58984-0.28125-0.91016-0.71094-1.0781-1.0391 0.82031-0.73047 2.4102-2.1992 3.2695-3.3516 0.10156-0.12891 0.17188-0.26172 0.26172-0.37891 0.10156-0.03125 1.0391-0.32031 1.6484 0.42187 0.28906 0.35547 0.41797 0.87891 0.34766 1.4062zm21.141-7.1875c-1.1406 1.1211-2.6484 0.80859-3.1016 0.69141-3.4805-2.7891-9.3906-9.4609-11.328-11.691-0.35938-0.41016-0.98047-0.44922-1.3984-0.10156-0.42188 0.35938-0.46875 1-0.10938 1.4219 1.9492 2.2383 7.7109 8.75 11.379 11.762-0.011719 0.51953-0.17188 1.5-1.1094 2.1992-1.1484 0.85156-2.2812 0.69922-2.6289 0.62891-3.5703-2.3789-8.5195-8.8711-10.18-11.129-0.32031-0.44141-0.92969-0.53125-1.3789-0.21875-0.46094 0.32031-0.55859 0.94922-0.23047 1.3984 1.6484 2.2383 6.3594 8.4297 10.16 11.238-0.28906 0.64844-0.76953 1.5-1.3906 1.8594-0.57812 0.33984-1.8594-0.10938-2.6211-0.55078-0.66016-0.75-4.5586-5.1914-8.0312-9.9102-0.32812-0.44141-0.94141-0.53906-1.3906-0.21875-0.44922 0.32031-0.55078 0.94922-0.23047 1.3984 3.2383 4.4102 6.8398 8.5703 7.9219 9.8008-0.14062 0.46875-0.51172 1.1484-1.4492 1.1719-1.2617 0.019532-2.1016-0.37891-2.6016-0.73047 0.28125-0.46094 0.48828-0.98828 0.55859-1.5703 0.14062-1.0781-0.14844-2.1484-0.78906-2.9297-0.67969-0.82031-1.5312-1.1406-2.3008-1.2109 0.17188-1.1094-0.25-2.1211-1.2812-3.1914-0.98047-1.0195-2.3711-1.2695-3.3008-1.3281-0.12109-0.25-0.26172-0.51172-0.46094-0.78125-0.98828-1.3281-2.3203-1.7305-3.4492-1.7305 0-0.050781 0.011719-0.10156 0.011719-0.16016-0.050782-0.96094-0.51953-1.8398-1.4102-2.6094-2.8203-2.4297-6.9688 0.78906-8.4102 2.0586-1.2109-0.58984-4.1719-2.25-6.7383-5.3711l8.7891-18.5h0.011719c0.35156 0 0.73828-0.039063 1.1406-0.14844 0.41016-0.10938 1.0586-0.42969 2.3711-1.0703 2.4609-1.2109 6.5781-3.2188 8.6602-3.2109 0.67188 0.011718 1.9102 0.41016 3.0391 0.91016-0.26953 0.10938-0.53125 0.21875-0.82031 0.33984-1.2188 0.51953-2.4883 1.0195-3.6211 1.4688-2.2812 0.91016-3.1094 1.25-3.4805 1.5312-1.2812 0.96875-7.4805 8.9297-6.2305 10.898 0.57812 0.91016 2.2305 1.6406 4.1016 1.8203 2.1016 0.19922 6.2188-0.14844 10.48-4.6016 2.3516-0.89844 5.1602-1.3516 6.3203-1.5117 1.0781 1.3711 4.3711 5.5312 6.7305 8.1406 1.1992 1.3203 2.8086 2.9883 4.3711 4.6016 2.0117 2.0781 4.0781 4.2109 5.0195 5.3789 0.41797 0.78516 1.3086 2.875 0.40625 3.7578zm-33.367-22.691c0.80859 0.42969 1.5391 0.98828 1.6797 1.3984-0.85937 1.3711-2.0586 2.1406-3.8711 2.5 0.28125-0.82812 1.168-2.3672 2.1914-3.8984zm37.238 14.09c-0.71094 0.91016-2.3203 2.1094-3.3789 2.8281-1.0898-1.2383-2.75-2.9492-4.4883-4.75-0.44141-0.46094-0.89062-0.92188-1.3281-1.3711 0.62109-0.21094 1.3516-0.5 1.7617-0.71094 0.46094-0.23828 0.92969-0.53125 1.3984-0.87891 0.48047-0.35938 0.53125-1.0586 0.12109-1.4883-0.35156-0.37109-0.92188-0.41016-1.3203-0.10938-1.3711 1.0391-2.8008 1.3906-3.5703 1.5117-0.5-0.53125-0.98047-1.0391-1.3906-1.4883-2.75-3.0391-6.9492-8.4219-6.9883-8.4805 0 0-0.21875-0.28906-0.35937-0.35156-0.17969-0.078126-0.53125-0.03125-0.53125-0.03125-0.17188 0.019531-4.0117 0.42969-7.2695 1.6719-0.10938 0.039063-0.37891 0.10938-0.51953 0.21094-0.14062 0.089844-0.33984 0.35938-0.42969 0.44922-3.3516 3.4219-6.4805 3.9297-8.1992 3.8789 1-0.55078 1.9688-1.3711 2.75-2.6719 0.03125-0.050781 0.14844-0.25 0.19141-0.37891 0.039063-0.12891 0.039063-0.37891 0.039063-0.48047-0.058594-1.4297-1.4492-2.4805-2.5508-3.0781 0.85156-1.1602 1.6719-2.1289 2.1992-2.5312 0.26953-0.17969 1.7305-0.76172 3.0195-1.2695 1.1406-0.44922 2.4297-0.96875 3.6602-1.4883 3.3984-1.4492 5.6289-2.1484 7-2.1992 1.7305-0.070313 5.1484 1.4688 7 2.2891 0.94141 0.42188 1.4102 0.62109 1.7109 0.69922 1.3711 0.35938 3.4297 0.10938 4.8789-0.35938l8.8594 18.641c-0.72656 0.41797-1.5859 1.0664-2.2656 1.9375zm12.328-2.1797-6.4219 2.9688c-0.070312 0.03125-0.14844 0-0.17969-0.070312l-11.285-23.758c-0.019531-0.039063-0.011718-0.078126 0-0.10938 0.011719-0.03125 0.03125-0.058593 0.070313-0.078124l6.9219-3.2305c0.019531-0.011719 0.039062-0.011719 0.058594-0.011719 0.019531 0 0.039062 0 0.050781 0.011719 0.019531 0.011719 0.058594 0.03125 0.078125 0.070312l10.789 24.031c0.019532 0.054688-0.011718 0.14453-0.082031 0.17578z" />
  <path
    d="m49.512 18.828h0.98047c0.28125 0 0.51172-0.23047 0.51172-0.51172v-8.1602c0-0.28125-0.23047-0.51172-0.51172-0.51172h-0.98047c-0.28125 0-0.51172 0.23047-0.51172 0.51172v8.1602c0 0.28516 0.23047 0.51172 0.51172 0.51172z" />
  <path
    d="m50.488 81.172h-0.98047c-0.28125 0-0.51172 0.23047-0.51172 0.51172v8.1602c0 0.28125 0.23047 0.51172 0.51172 0.51172h0.98047c0.28125 0 0.51172-0.23047 0.51172-0.51172v-8.1602c0-0.28516-0.23047-0.51172-0.51172-0.51172z" />
  <path
    d="m28.148 22.871c0.16016 0.23047 0.48047 0.28906 0.71094 0.12891l0.80859-0.55078c0.23047-0.16016 0.28906-0.48047 0.12891-0.71094l-4.5586-6.6719c-0.16016-0.23047-0.48047-0.28906-0.71094-0.12891l-0.80859 0.55078c-0.23047 0.16016-0.28906 0.48047-0.12891 0.71094z" />
  <path
    d="m13.301 38.629 0.32812-0.92188c0.10156-0.26953-0.039062-0.55859-0.30859-0.66016l-4.6797-1.6914c-0.25-0.09375-0.53906 0.042969-0.64062 0.31641l-0.32812 0.92188c-0.10156 0.26953 0.039063 0.55859 0.30859 0.66016l4.6797 1.6914c0.25 0.085938 0.55078-0.054687 0.64062-0.31641z" />
  <path
    d="m16.32 60.602c-0.070312-0.26953-0.35937-0.42969-0.62891-0.35937l-7.3281 1.9883c-0.27344 0.078125-0.43359 0.35938-0.36328 0.62891l0.26172 0.94141c0.070312 0.26953 0.35938 0.42969 0.62891 0.35938l7.3281-1.9883c0.26953-0.070313 0.42969-0.35938 0.35938-0.62891z" />
  <path
    d="m28.879 74.891c-0.21875-0.17188-0.53906-0.12891-0.71875 0.089844l-4.5117 5.8281c-0.17188 0.21875-0.12891 0.53906 0.089843 0.71875l0.76953 0.60156c0.21875 0.17188 0.53906 0.12891 0.71875-0.089844l4.5117-5.8281c0.17188-0.21875 0.12891-0.53906-0.089843-0.71875z" />
  <path
    d="m71.84 74.98c-0.17188-0.21875-0.48828-0.26172-0.71875-0.089844l-0.76953 0.60156c-0.21875 0.17187-0.26172 0.48828-0.089843 0.71875l4.5117 5.8281c0.17187 0.21875 0.48828 0.26172 0.71875 0.089844l0.76953-0.60156c0.21875-0.17188 0.26172-0.48828 0.089843-0.71875z" />
  <path
    d="m91.641 62.238-7.3281-1.9883c-0.26953-0.070312-0.55078 0.089844-0.62891 0.35938l-0.26172 0.94141c-0.070313 0.26953 0.089844 0.55078 0.35938 0.62891l7.3281 1.9883c0.26953 0.070312 0.55078-0.089844 0.62891-0.35938l0.26172-0.94922c0.070312-0.26953-0.089844-0.55078-0.35938-0.62109z" />
  <path
    d="m92.328 36.578-0.32812-0.90625c-0.10156-0.26953-0.39062-0.39844-0.66016-0.30859l-4.6797 1.6914c-0.26953 0.10156-0.39844 0.39062-0.30859 0.66016l0.32813 0.92188c0.10156 0.26953 0.39062 0.39844 0.66016 0.30859l4.6797-1.6914c0.26953-0.11328 0.41016-0.40234 0.30859-0.67578z" />
  <path
    d="m71.141 23c0.23047 0.16016 0.55078 0.10156 0.71094-0.12891l4.5586-6.6719c0.16016-0.23047 0.10156-0.55078-0.12891-0.71094l-0.80859-0.55078c-0.23047-0.16016-0.55078-0.10156-0.71094 0.12891l-4.5586 6.6719c-0.16016 0.23047-0.10156 0.55078 0.12891 0.71094z" />
</svg>