<svg width="63" height="62" viewBox="0 0 63 62" fill="none" xmlns="http://www.w3.org/2000/svg">
<path d="M31.7353 62C14.5209 62 0.521973 48.0894 0.521973 31C0.521973 13.9106 14.5283 0 31.7353 0C33.8441 0 35.9604 0.207954 38.0094 0.623862C39.1311 0.854097 40.2602 1.14375 41.3595 1.50024C41.9129 1.67849 42.212 2.26521 42.0325 2.81481C41.8531 3.3644 41.2623 3.66148 40.7089 3.48323C39.6844 3.15644 38.6375 2.88165 37.5906 2.66627C35.6762 2.28007 33.7095 2.07954 31.7353 2.07954C15.6799 2.07954 2.6233 15.0544 2.6233 30.9926C2.6233 46.9308 15.6874 59.9056 31.7353 59.9056C47.7831 59.9056 60.8548 46.9308 60.8548 30.9926C60.8548 26.2468 59.6732 21.5381 57.4373 17.3864C57.1606 16.8814 57.355 16.2501 57.871 15.9753C58.3795 15.708 59.0152 15.8936 59.2918 16.4061C61.6923 20.8622 62.9561 25.9126 62.9561 31C62.9561 48.0968 48.9497 62 31.7428 62H31.7353Z" fill="white"/>
<path d="M52.8831 10.6799C52.6139 10.6799 52.3522 10.5834 52.1503 10.3828C51.41 9.65501 50.6173 8.96431 49.7947 8.31816C49.1666 7.82056 48.5085 7.34524 47.8429 6.90705C47.3644 6.58769 47.2297 5.94155 47.5513 5.4588C47.8729 4.98347 48.5235 4.84979 49.0095 5.16915C49.7199 5.63704 50.4229 6.1495 51.1034 6.67681C51.9858 7.36752 52.8308 8.11021 53.6235 8.89004C54.0348 9.29109 54.0422 9.95209 53.6384 10.3606C53.4365 10.5685 53.1598 10.6725 52.8906 10.6725L52.8831 10.6799Z" fill="white"/>
<path d="M38.1514 15.2475H25.3266C20.1144 15.2475 15.8744 19.4585 15.8744 24.6351V37.3723C15.8744 42.5489 20.1144 46.7599 25.3266 46.7599H38.1514C43.3636 46.7599 47.6037 42.5489 47.6037 37.3723V24.6351C47.6037 19.4585 43.3636 15.2475 38.1514 15.2475ZM31.7353 39.1473C27.2111 39.1473 23.5319 35.4933 23.5319 31C23.5319 26.5067 27.2111 22.8527 31.7353 22.8527C36.2595 22.8527 39.9387 26.5067 39.9387 31C39.9387 35.4933 36.2595 39.1473 31.7353 39.1473ZM39.9611 24.8654C38.8768 24.8654 37.9944 23.989 37.9944 22.9121C37.9944 21.8352 38.8768 20.9588 39.9611 20.9588C41.0454 20.9588 41.9278 21.8352 41.9278 22.9121C41.9278 23.989 41.0454 24.8654 39.9611 24.8654Z" fill="white"/>
</svg>
