<svg width="63" height="62" viewBox="0 0 63 62" fill="none" xmlns="http://www.w3.org/2000/svg">
<path d="M43.1234 17.2528H20.45C19.0665 17.2528 17.9448 18.3668 17.9448 19.7408V42.2592C17.9448 43.6332 19.0665 44.7472 20.45 44.7472H43.1234C44.5068 44.7472 45.6285 43.6332 45.6285 42.2592V19.7408C45.6285 18.3668 44.5068 17.2528 43.1234 17.2528ZM26.5147 40.9966C26.5147 41.3977 26.1856 41.7171 25.7893 41.7171H22.6859C22.2821 41.7171 21.9605 41.3903 21.9605 40.9966V28.0812C21.9605 27.6802 22.2896 27.3608 22.6859 27.3608H25.7893C26.1931 27.3608 26.5147 27.6876 26.5147 28.0812V40.9966ZM24.2339 26.1354C22.6036 26.1354 21.2875 24.8282 21.2875 23.2092C21.2875 21.5901 22.6036 20.2829 24.2339 20.2829C25.8641 20.2829 27.1802 21.5901 27.1802 23.2092C27.1802 24.8282 25.8641 26.1354 24.2339 26.1354ZM42.727 41.0486C42.727 41.4126 42.4279 41.7171 42.054 41.7171H38.7263C38.3599 41.7171 38.0533 41.42 38.0533 41.0486V34.9883C38.0533 34.0822 38.3225 31.0297 35.6753 31.0297C33.6263 31.0297 33.2075 33.1241 33.1252 34.0599V41.0486C33.1252 41.4126 32.8261 41.7171 32.4522 41.7171H29.2292C28.8628 41.7171 28.5562 41.42 28.5562 41.0486V28.0144C28.5562 27.6505 28.8553 27.346 29.2292 27.346H32.4522C32.8186 27.346 33.1252 27.643 33.1252 28.0144V29.1433C33.888 28.0069 35.0172 27.1306 37.4251 27.1306C42.757 27.1306 42.727 32.0769 42.727 34.7952V41.0486Z" fill="white"/>
<path d="M31.7867 62C14.5723 62 0.573395 48.0894 0.573395 31C0.573395 13.9106 14.5797 0 31.7867 0C33.8955 0 36.0043 0.207954 38.0608 0.623862C39.1899 0.854097 40.3191 1.14375 41.4109 1.50024C41.9643 1.67849 42.2634 2.26521 42.0839 2.81481C41.9045 3.3644 41.3137 3.66148 40.7603 3.48323C39.7433 3.15644 38.6889 2.88165 37.642 2.66627C35.7276 2.28007 33.7609 2.07954 31.7867 2.07954C15.7314 2.07954 2.67472 15.0544 2.67472 31C2.67472 46.9456 15.7388 59.913 31.7867 59.913C47.8346 59.913 60.9062 46.9382 60.9062 31C60.9062 26.2542 59.7246 21.5455 57.4887 17.3864C57.212 16.8814 57.4064 16.2501 57.9224 15.9753C58.4309 15.7005 59.0666 15.8936 59.3433 16.4061C61.7437 20.8622 63.0075 25.9126 63.0075 31C63.0075 48.0968 49.0011 62 31.7942 62H31.7867Z" fill="white"/>
<path d="M52.9346 10.6799C52.6728 10.6799 52.4036 10.5834 52.2017 10.3828C51.4539 9.65501 50.6613 8.9643 49.8461 8.31816C49.218 7.82055 48.5599 7.35266 47.8944 6.90704C47.4083 6.58769 47.2812 5.94154 47.6027 5.45879C47.9243 4.97604 48.5749 4.84978 49.061 5.16914C49.7789 5.64447 50.4818 6.1495 51.1548 6.67681C52.0297 7.36751 52.8822 8.11021 53.6749 8.89003C54.0862 9.29109 54.0937 9.95208 53.6899 10.3606C53.488 10.5685 53.2113 10.6725 52.9421 10.6725L52.9346 10.6799Z" fill="white"/>
</svg>
