<svg width="118" height="85" viewBox="0 0 118 85" fill="none" xmlns="http://www.w3.org/2000/svg">
<g clip-path="url(#clip0_1_3)">
<path fill-rule="evenodd" clip-rule="evenodd" d="M69.1615 44.8627C70.9682 42.6443 72.6666 40.3105 74.2235 37.9766H74.0404C69.3696 37.9766 69.1615 38.0838 69.1615 40.2445V44.8627Z" fill="#D7B46A"/>
<path d="M69.1615 6.55622C69.1615 3.6451 69.4695 3.22451 75.9136 3.22451C87.4364 3.22451 92.5317 11.026 92.5317 19.2481C92.5317 26.3239 90.1422 29.9607 87.3365 32.1461C84.3226 34.4387 80.3762 34.8511 76.638 34.8511C71.3428 34.8511 69.7859 34.6449 69.4695 34.3315C69.1615 33.9192 69.1615 32.7729 69.1615 30.9008V6.55622ZM60.6526 53.3487C60.6526 64.251 60.4445 65.6035 54.425 66.3374L51.8274 66.6508C51.203 67.3765 51.4111 68.9599 52.0355 69.2651C56.9144 69.0589 60.6526 68.9847 65.0153 68.9847C69.378 68.9847 72.6999 69.0506 77.3706 69.2651C77.995 68.9517 78.2032 67.1704 77.5788 66.6508L75.3974 66.3374C69.378 65.5045 69.1698 64.2592 69.1698 53.3487V40.2445C69.1698 38.0756 69.378 37.9766 74.0487 37.9766C78.2032 37.9766 79.86 39.0157 81.4252 41.2918C84.6473 45.976 88.9017 53.1508 91.5992 56.9855C98.9758 67.525 104.271 70.131 113.096 70.131C115.069 70.131 116.734 69.9248 117.667 69.6114C118.183 69.1991 118.083 68.3662 117.567 68.1517C114.761 67.9456 112.164 66.7993 110.399 65.2406C103.338 59.3111 97.8352 50.9901 89.5261 37.5643C89.0099 36.7313 88.4854 35.6922 89.0099 35.0655C94.2052 32.9873 101.99 27.5774 101.99 17.6894C101.99 10.4075 98.3514 5.7233 93.3726 3.12555C88.5853 0.51955 82.4576 0 76.0219 0C65.8395 0 58.6794 0.313379 52.8598 0.832929C52.0272 1.24527 52.0272 2.91113 52.7599 3.43068L56.0818 3.84302C60.3363 4.36257 60.6526 6.13564 60.6526 16.0153V53.3487Z" fill="white"/>
<path fill-rule="evenodd" clip-rule="evenodd" d="M60.6527 52.7467V47.2873C46.8154 61.1749 16.0103 74.9471 3.77155 53.0023C12.6967 75.2358 45.0836 65.5952 60.6527 52.7467Z" fill="#C09449"/>
<path fill-rule="evenodd" clip-rule="evenodd" d="M75.8887 34.8346C78.2781 30.604 80.7259 25.8703 82.1246 21.2191L85.1635 21.8211C85.5881 15.0175 85.2551 7.43863 83.4734 0.791687C80.8008 14.1845 76.7129 25.2847 70.6851 34.7521C71.6759 34.7933 72.8664 34.8098 74.1236 34.8346L74.1403 34.8016L75.8887 34.8346Z" fill="#C09449"/>
<path fill-rule="evenodd" clip-rule="evenodd" d="M83.4734 0.791687C80.1348 7.117 75.1393 12.6919 70.6768 18.3079C75.922 19.6357 69.0782 17.9038 73.5075 19.0254L73.4825 19.1903V19.2151L73.4659 19.3058V19.3553L73.4492 19.3965L73.4326 19.4872V19.512L73.4243 19.5367L73.3993 19.6769L73.3826 19.7759L73.366 19.8501L73.341 19.9655V20.0233L73.3243 20.0645L73.3077 20.1635V20.1965L73.2827 20.2624L73.2577 20.3614L73.2411 20.4604L73.2244 20.5428L73.1995 20.65L73.1828 20.716V20.749C73.1495 20.848 73.1245 20.9469 73.0996 21.0459V21.0624L73.0579 21.2356L73.0163 21.384V21.4087L72.9996 21.4417L72.9747 21.5407L72.958 21.5902L72.9414 21.6397L72.9164 21.7386V21.7634L72.8581 21.9365V21.953L72.8082 22.118V22.1427C72.7749 22.2417 72.7415 22.3406 72.7166 22.4478V22.4808L72.6833 22.5551L72.65 22.654L72.6167 22.753L72.5917 22.8354V22.8519C72.5501 22.9509 72.5168 23.0581 72.4835 23.1571L72.4668 23.1901L72.4085 23.355L72.3419 23.5447V23.5612C72.3003 23.6601 72.2587 23.7673 72.2254 23.8663L72.2087 23.9075L72.1837 23.9653L72.1421 24.0642V24.0807L72.0672 24.2621L72.0006 24.4436V24.4766L71.9506 24.5755L71.934 24.625L71.8674 24.7817V24.8064L71.8257 24.8889L71.7841 24.9879L71.7425 25.0951L71.7092 25.1693V25.194C71.2263 26.3238 70.2522 28.435 69.1948 30.3895C69.2031 31.4699 69.1782 32.4925 69.1698 33.2677V33.5233V33.5481V33.5728V33.5811V33.5975C69.1698 33.9851 69.1865 34.4305 69.2364 34.5377C69.2614 34.6284 69.2864 34.6779 69.328 34.6779L69.4779 34.6944H69.4862H69.5528H69.5695C69.9108 34.7191 70.3021 34.7439 70.7184 34.7603C76.7379 25.3012 80.8341 14.1928 83.5067 0.799934" fill="#D7B46A"/>
<path fill-rule="evenodd" clip-rule="evenodd" d="M33.3943 32.2863V26.3898L28.2241 28.0969V29.5731L32.695 31.9234C32.9281 32.0472 33.1612 32.1709 33.3943 32.2946M38.5479 57.3154C36.8495 58.1236 35.1261 58.8658 33.3943 59.5091V44.137C32.1705 43.1309 30.6718 42.133 28.8402 41.1434L28.2324 40.8135V61.2986C27.9077 61.3646 26.7338 61.4306 26.4091 61.4966V39.8157L21.2388 36.987V61.9996C20.9141 61.9914 19.7402 61.9831 19.4155 61.9584V38.4549L14.2453 40.162V60.6966C11.1814 59.5421 7.49312 57.5958 5.02039 54.6434C4.84555 54.4373 4.67904 54.2311 4.51253 54.0167L4.42927 53.9177C4.20448 53.6291 3.98801 53.3322 3.76321 53.0271C10.7152 65.4963 23.6699 66.4282 36.0919 62.3625C37.3907 60.8863 38.2066 59.1627 38.5479 57.3402V57.3154ZM60.6527 47.2873V41.8279C57.2558 45.2173 52.7849 48.8624 47.7645 52.1282C47.6812 54.1239 47.2733 56.0042 46.5573 57.736C52.0189 54.7177 56.9394 51.0066 60.6443 47.2873H60.6527Z" fill="#D7B46A"/>
<path fill-rule="evenodd" clip-rule="evenodd" d="M60.6527 47.2873V41.8279C54.2169 48.2439 43.9263 55.5918 33.4027 59.5173V26.3898L28.2324 28.0969V61.2904C27.9077 61.3564 26.7338 61.4223 26.4091 61.4883V31.5771L21.2388 33.2842V61.9914C20.9141 61.9831 19.7402 61.9666 19.4155 61.9501V38.4467L14.2453 40.1538V60.6884C11.1814 59.5338 7.49312 57.5876 5.02039 54.6352C4.84555 54.429 4.67904 54.2229 4.5042 54.0084L4.42927 53.9095C4.20448 53.6208 3.97968 53.324 3.76321 53.0188C16.002 74.9554 46.8154 61.1832 60.6443 47.3038" fill="#D7B46A"/>
<path fill-rule="evenodd" clip-rule="evenodd" d="M47.7645 52.1282C44.8422 54.0332 41.7367 55.8063 38.5479 57.3237C38.2066 59.1462 37.3907 60.8698 36.0919 62.346C39.6719 61.1749 43.2186 59.5833 46.5573 57.7443C47.2733 56.0124 47.6812 54.1322 47.7645 52.1364" fill="#D7B46A"/>
<path d="M47.7811 51.3695C47.7811 41.7454 40.2963 35.8654 32.695 31.9152L23.0455 26.8517C18.5829 24.5178 12.7883 20.2625 12.7883 14.3907C12.7883 9.73126 15.3193 3.14205 27.1501 3.14205C38.9809 3.14205 41.9948 9.73126 43.56 14.5886C44.1595 15.1989 46.091 14.8938 46.5739 14.2835C46.5739 10.0281 45.4916 4.35433 44.4009 1.92152C43.4351 1.92152 41.745 1.71535 40.1798 1.31125C37.041 0.602025 32.695 -0.00823975 28.9567 -0.00823975C13.2711 7.07712e-06 4.346 7.8015 4.346 17.4255C4.346 25.7383 11.3479 31.5111 17.3757 34.8511L28.8402 41.1352C37.6488 45.8936 38.7311 50.8664 38.7311 55.3197C38.7311 61.3976 33.7856 66.9725 23.645 66.9725C9.64947 66.9725 4.70401 57.0433 2.88901 51.8725C2.40612 51.2623 0.599444 51.4684 -0.0083313 52.1777C0.233114 56.9361 1.79834 64.1356 3.24701 66.3622C5.53658 67.4755 11.9307 70.1145 22.0714 70.1145C37.757 70.1145 47.7728 62.5109 47.7728 51.3695" fill="white"/>
<path fill-rule="evenodd" clip-rule="evenodd" d="M26.4008 40.327V31.5688L21.2388 33.2759V37.4901L26.4008 40.327Z" fill="#D7B46A"/>
<path fill-rule="evenodd" clip-rule="evenodd" d="M33.3943 44.838V32.0224C33.1612 31.8987 32.9281 31.775 32.695 31.6513L28.2241 29.301V41.498L28.8319 41.8279C30.6635 42.8258 32.1621 43.8236 33.386 44.8215" fill="#D7B46A"/>
<path d="M117.575 78.9386L117.018 79.3757C116.868 79.2272 116.735 79.1118 116.618 79.0376C116.501 78.9633 116.327 78.9304 116.102 78.9304C115.86 78.9304 115.66 78.9881 115.502 79.0953C115.352 79.2025 115.269 79.3427 115.269 79.5159C115.269 79.6643 115.336 79.7963 115.469 79.9117C115.602 80.0272 115.827 80.1509 116.152 80.2911C116.476 80.4313 116.726 80.555 116.901 80.6704C117.084 80.7859 117.226 80.9178 117.342 81.058C117.459 81.1982 117.542 81.3549 117.6 81.5116C117.659 81.6683 117.684 81.8332 117.684 82.0147C117.684 82.427 117.534 82.7816 117.226 83.0703C116.926 83.3589 116.551 83.5073 116.127 83.5073C115.702 83.5073 115.336 83.3919 115.011 83.1692C114.686 82.9383 114.445 82.6002 114.27 82.1466L114.953 81.9569C115.203 82.5177 115.586 82.7981 116.093 82.7981C116.343 82.7981 116.551 82.7239 116.71 82.5754C116.876 82.427 116.959 82.2456 116.959 82.0229C116.959 81.891 116.918 81.7508 116.834 81.6188C116.751 81.4869 116.643 81.3714 116.518 81.2807C116.393 81.19 116.185 81.091 115.91 80.9756C115.627 80.8601 115.419 80.7529 115.261 80.6539C115.111 80.5632 114.978 80.4478 114.87 80.3158C114.761 80.1839 114.678 80.0519 114.628 79.9282C114.578 79.7963 114.553 79.6561 114.553 79.5076C114.553 79.153 114.695 78.8479 114.986 78.6005C115.278 78.3531 115.627 78.2211 116.035 78.2211C116.31 78.2211 116.585 78.2789 116.868 78.3943C117.151 78.5098 117.384 78.6912 117.567 78.9304M110.174 78.3861H110.857V83.3506H110.174V78.3861ZM104.038 78.3861H106.819V79.0623H104.721V80.2911H106.819V80.9673H104.721V82.6662H106.819V83.3424H104.038V78.3778V78.3861ZM98.2931 81.0498V82.7486H98.3431C98.9259 82.7486 99.3255 82.6579 99.5336 82.4682C99.7501 82.2786 99.85 82.0889 99.85 81.891C99.85 81.6353 99.7335 81.4291 99.492 81.2725C99.2506 81.1158 98.9259 81.0415 98.5179 81.0415H98.2931V81.0498ZM98.2931 78.9881V80.456C98.6678 80.456 98.9592 80.3818 99.1507 80.2416C99.3505 80.1014 99.4504 79.9117 99.4504 79.6726C99.4504 79.4581 99.3588 79.2932 99.184 79.1695C99.0008 79.0458 98.7593 78.9798 98.4596 78.9798C98.393 78.9798 98.3347 78.9798 98.2931 78.9798V78.9881ZM97.6104 78.3861H98.4013C98.9259 78.3861 99.3505 78.5015 99.6752 78.7242C100.008 78.9468 100.166 79.2355 100.166 79.5736C100.166 79.9942 99.9249 80.3406 99.4504 80.621C100.2 80.8684 100.574 81.3054 100.574 81.9157C100.574 82.3445 100.383 82.6909 99.9915 82.9548C99.6002 83.2187 99.084 83.3506 98.4263 83.3506H97.6021V78.3861H97.6104ZM91.9573 79.755L91.1497 81.5199H92.7648L91.9573 79.755ZM91.9489 78.1964L94.3134 83.3589H93.5974L93.0146 82.0889H90.8832L90.3004 83.3589H89.5844L91.9323 78.1964H91.9489ZM83.8397 78.3861H86.9202V79.0623H85.7213V83.3506H85.0386V79.0623H83.848V78.3861H83.8397ZM76.1717 78.1881L79.8767 81.9569V78.3861H80.5594V83.5816L76.8545 79.821V83.3506H76.1717V78.1881ZM72.0339 80.8766C72.0339 80.3323 71.8341 79.8705 71.4344 79.4911C71.0348 79.12 70.5436 78.9304 69.9608 78.9304C69.378 78.9304 68.9284 79.12 68.5371 79.4994C68.1458 79.8787 67.946 80.3406 67.946 80.8684C67.946 81.3961 68.1458 81.8662 68.5537 82.2456C68.9617 82.6167 69.4529 82.8064 70.044 82.8064C70.5852 82.8064 71.0514 82.6167 71.4428 82.2373C71.8341 81.858 72.0339 81.3962 72.0339 80.8766ZM67.23 80.8354C67.23 80.1179 67.5047 79.5076 68.0459 78.9963C68.5954 78.485 69.2448 78.2294 70.0107 78.2294C70.7767 78.2294 71.4011 78.485 71.9423 79.0046C72.4835 79.5159 72.7499 80.1344 72.7499 80.8436C72.7499 81.5941 72.4835 82.2291 71.9506 82.7404C71.4178 83.2599 70.76 83.5156 69.9858 83.5156C69.2115 83.5156 68.5704 83.2517 68.0292 82.7321C67.4881 82.2126 67.2216 81.5776 67.2216 80.8354H67.23ZM64.0662 78.5592V79.3262C63.525 79.0623 63.0255 78.9386 62.5759 78.9386C61.9931 78.9386 61.5019 79.1283 61.1022 79.4994C60.7026 79.8705 60.5028 80.3323 60.5028 80.8684C60.5028 81.4044 60.7026 81.8827 61.1189 82.2538C61.5269 82.6249 62.0347 82.8064 62.6508 82.8064C63.1004 82.8064 63.5667 82.6662 64.0662 82.394V83.1692C63.6083 83.4084 63.1171 83.5321 62.5925 83.5321C61.8183 83.5321 61.1522 83.2764 60.6027 82.7486C60.0532 82.2291 59.7785 81.6023 59.7785 80.8684C59.7785 80.1344 60.0532 79.5324 60.5944 79.0128C61.1356 78.5015 61.7933 78.2459 62.5509 78.2459C63.0421 78.2459 63.55 78.3531 64.0745 78.5757L64.0662 78.5592ZM54.2585 78.9386L53.7007 79.3757C53.5508 79.2272 53.4176 79.1118 53.3011 79.0376C53.1845 78.9633 53.0097 78.9304 52.7849 78.9304C52.5351 78.9304 52.3436 78.9881 52.1854 79.0953C52.0356 79.2025 51.9523 79.3427 51.9523 79.5159C51.9523 79.6643 52.0189 79.7963 52.1521 79.9117C52.2853 80.0272 52.5101 80.1509 52.8348 80.2911C53.1595 80.4313 53.4093 80.555 53.5842 80.6704C53.7673 80.7859 53.9089 80.9178 54.0254 81.058C54.142 81.1982 54.2252 81.3549 54.2835 81.5116C54.3418 81.6683 54.3668 81.8332 54.3668 82.0147C54.3668 82.427 54.2169 82.7816 53.9089 83.0703C53.6091 83.3589 53.2345 83.5073 52.8099 83.5073C52.3853 83.5073 52.0189 83.3919 51.6942 83.1692C51.3695 82.9383 51.1281 82.6002 50.9532 82.1466L51.6359 81.9569C51.8857 82.5177 52.2687 82.7981 52.7766 82.7981C53.0263 82.7981 53.2345 82.7239 53.3927 82.5754C53.5592 82.427 53.6424 82.2456 53.6424 82.0229C53.6424 81.891 53.6008 81.7508 53.5092 81.6188C53.426 81.4869 53.3177 81.3714 53.1928 81.2807C53.068 81.19 52.8598 81.091 52.5851 80.9756C52.302 80.8601 52.0938 80.7529 51.9357 80.6539C51.7858 80.5632 51.6526 80.4478 51.5444 80.3158C51.4361 80.1839 51.3529 80.0519 51.3029 79.9282C51.253 79.7963 51.228 79.6561 51.228 79.5076C51.228 79.153 51.3695 78.8479 51.6609 78.6005C51.9523 78.3531 52.302 78.2211 52.71 78.2211C52.9847 78.2211 53.2594 78.2789 53.5425 78.3943C53.8256 78.5098 54.0587 78.6912 54.2419 78.9304L54.2585 78.9386ZM45.0503 78.3861H47.8311V79.0623H45.733V80.2911H47.8311V80.9673H45.733V82.6662H47.8311V83.3424H45.0503V78.3778V78.3861ZM38.115 77.8005H37.5905V77.7511C37.5905 77.5037 37.6654 77.3057 37.8153 77.149C37.9652 76.9924 38.1566 76.9099 38.3898 76.9099C38.5146 76.9099 38.6895 76.9676 38.9309 77.0748C39.1724 77.182 39.3389 77.2398 39.4221 77.2398C39.5137 77.2398 39.5803 77.215 39.622 77.1573C39.6636 77.1078 39.6886 77.0253 39.7052 76.9099H40.2214C40.2131 77.1985 40.1382 77.4129 40.0049 77.5696C39.8717 77.7263 39.6886 77.8005 39.4555 77.8005C39.2806 77.8005 39.0808 77.7428 38.8727 77.6191C38.6562 77.5037 38.5063 77.4459 38.4147 77.4459C38.3232 77.4459 38.2566 77.4789 38.1983 77.5366C38.14 77.5944 38.115 77.6768 38.115 77.7758V77.8088V77.8005ZM40.9291 80.8766C40.9291 80.3323 40.7293 79.8705 40.3296 79.4911C39.93 79.12 39.4388 78.9304 38.856 78.9304C38.2732 78.9304 37.8319 79.12 37.4323 79.4994C37.041 79.8787 36.8412 80.3406 36.8412 80.8684C36.8412 81.3961 37.041 81.8662 37.449 82.2456C37.8569 82.6167 38.3481 82.8064 38.9393 82.8064C39.4804 82.8064 39.9467 82.6167 40.338 82.2373C40.7293 81.858 40.9291 81.3962 40.9291 80.8766ZM36.1252 80.8354C36.1252 80.1179 36.3999 79.5076 36.9411 78.9963C37.4906 78.485 38.14 78.2294 38.906 78.2294C39.6719 78.2294 40.2963 78.485 40.8375 79.0046C41.3787 79.5159 41.6451 80.1344 41.6451 80.8436C41.6451 81.5941 41.3787 82.2291 40.8458 82.7404C40.313 83.2599 39.6553 83.5156 38.881 83.5156C38.1067 83.5156 37.4656 83.2517 36.9244 82.7321C36.3833 82.2126 36.1169 81.5776 36.1169 80.8354H36.1252ZM30.3222 83.9527L30.5053 83.3424C29.9392 83.1445 29.4896 82.8146 29.1566 82.361C28.8235 81.9075 28.657 81.4044 28.657 80.8519C28.657 80.1344 28.9318 79.5159 29.473 78.9963C30.0141 78.485 30.6719 78.2294 31.4295 78.2294C31.9207 78.2294 32.4286 78.3366 32.9531 78.5592V79.3262C32.4119 79.0623 31.9124 78.9386 31.4628 78.9386C30.88 78.9386 30.3888 79.1283 29.9891 79.4994C29.5895 79.8705 29.3897 80.3323 29.3897 80.8684C29.3897 81.4044 29.5895 81.8827 30.0058 82.2538C30.4138 82.6249 30.9216 82.8064 31.5377 82.8064C31.9873 82.8064 32.4535 82.6662 32.9531 82.394V83.1692C32.4952 83.4084 32.004 83.5321 31.4711 83.5321C31.3213 83.5321 31.1547 83.5156 30.9799 83.4908L30.9133 83.6888C31.1214 83.7135 31.288 83.7795 31.4045 83.8867C31.5211 83.9939 31.5793 84.1176 31.5793 84.266C31.5793 84.4887 31.4711 84.6701 31.263 84.8103C31.0548 84.9505 30.7634 85.0165 30.4138 85.0165C30.2639 85.0165 30.0807 85 29.8809 84.967L29.9225 84.5135H30.0141L30.2306 84.5299C30.6968 84.5299 30.9299 84.431 30.9299 84.2331C30.9299 84.0599 30.7468 83.9692 30.3721 83.9692H30.3055L30.3222 83.9527ZM21.447 78.3861H22.1297V81.4374C22.1297 81.891 22.2379 82.2373 22.4627 82.4847C22.6792 82.7321 22.9956 82.8558 23.3952 82.8558C23.7948 82.8558 24.1029 82.7404 24.3277 82.5177C24.5525 82.2868 24.6607 81.9734 24.6607 81.5528V78.3861H25.3434V81.5116C25.3434 82.1219 25.1686 82.6084 24.8189 82.9713C24.4692 83.3342 24.003 83.5156 23.4202 83.5156C22.8374 83.5156 22.3462 83.3342 21.9882 82.963C21.6301 82.5919 21.447 82.0477 21.447 81.3302V78.3943V78.3861ZM15.9937 78.3861H16.6764V82.6744H18.3082V83.3506H15.9937V78.3861ZM11.7143 80.8766C11.7143 80.3323 11.5144 79.8705 11.1148 79.4911C10.7152 79.12 10.224 78.9304 9.64116 78.9304C9.05836 78.9304 8.6171 79.12 8.21746 79.4994C7.82616 79.8787 7.62634 80.3406 7.62634 80.8684C7.62634 81.3961 7.82616 81.8662 8.23412 82.2456C8.64207 82.6167 9.13329 82.8064 9.72441 82.8064C10.2656 82.8064 10.7318 82.6167 11.1231 82.2373C11.5144 81.858 11.7143 81.3962 11.7143 80.8766ZM6.91033 80.8354C6.91033 80.1179 7.18508 79.5076 7.72625 78.9963C8.27574 78.485 8.92515 78.2294 9.69111 78.2294C10.4571 78.2294 11.0815 78.485 11.6227 79.0046C12.1638 79.5159 12.4303 80.1344 12.4303 80.8436C12.4303 81.5941 12.1638 82.2291 11.631 82.7404C11.0982 83.2599 10.4404 83.5156 9.66613 83.5156C8.89184 83.5156 8.25077 83.2517 7.7096 82.7321C7.16843 82.2126 6.902 81.5776 6.902 80.8354H6.91033ZM3.58838 78.9386L3.03056 79.3757C2.8807 79.2272 2.74749 79.1118 2.63093 79.0376C2.51437 78.9633 2.33953 78.9304 2.11473 78.9304C1.87329 78.9304 1.67347 78.9881 1.51528 79.0953C1.36542 79.2025 1.28216 79.3427 1.28216 79.5159C1.28216 79.6643 1.34877 79.7963 1.48198 79.9117C1.61519 80.0272 1.83999 80.1509 2.16469 80.2911C2.48939 80.4313 2.73916 80.555 2.914 80.6704C3.09716 80.7859 3.2387 80.9178 3.35526 81.058C3.47182 81.1982 3.55508 81.3549 3.61336 81.5116C3.67164 81.6683 3.69661 81.8332 3.69661 82.0147C3.69661 82.427 3.54675 82.7816 3.2387 83.0703C2.93898 83.3589 2.56432 83.5073 2.13971 83.5073C1.7151 83.5073 1.34877 83.3919 1.02407 83.1692C0.699366 82.9383 0.457921 82.6002 0.283081 82.1466L0.965788 81.9569C1.21556 82.5177 1.59854 82.7981 2.10641 82.7981C2.35618 82.7981 2.56432 82.7239 2.72251 82.5754C2.88902 82.427 2.97228 82.2456 2.97228 82.0229C2.97228 81.891 2.93065 81.7508 2.84739 81.6188C2.76414 81.4869 2.6559 81.3714 2.53102 81.2807C2.40613 81.19 2.19799 81.091 1.92324 80.9756C1.64017 80.8601 1.43203 80.7529 1.27384 80.6539C1.12398 80.5632 0.990765 80.4478 0.882531 80.3158C0.774297 80.1839 0.69104 80.0519 0.641086 79.9282C0.591132 79.7963 0.566155 79.6561 0.566155 79.5076C0.566155 79.153 0.707691 78.8479 0.99909 78.6005C1.29049 78.3531 1.64017 78.2211 2.04813 78.2211C2.32288 78.2211 2.59762 78.2789 2.8807 78.3943C3.16377 78.5098 3.39689 78.6912 3.58005 78.9304L3.58838 78.9386Z" fill="white"/>
<path d="M117.575 78.9386L117.018 79.3757C116.868 79.2272 116.735 79.1118 116.618 79.0375C116.501 78.9633 116.327 78.9303 116.102 78.9303C115.852 78.9303 115.66 78.9881 115.502 79.0953C115.352 79.2025 115.269 79.3509 115.269 79.5159C115.269 79.6643 115.336 79.7963 115.469 79.9117C115.602 80.0272 115.827 80.1509 116.152 80.2911C116.476 80.4313 116.726 80.555 116.901 80.6704C117.084 80.7859 117.226 80.9178 117.342 81.058C117.459 81.1982 117.542 81.3549 117.6 81.5116C117.659 81.6683 117.684 81.8332 117.684 82.0146C117.684 82.427 117.534 82.7816 117.226 83.0702C116.926 83.3589 116.551 83.5073 116.127 83.5073C115.702 83.5073 115.336 83.3919 115.011 83.1692C114.686 82.9383 114.445 82.6002 114.27 82.1466L114.953 81.9569C115.203 82.5177 115.586 82.7981 116.093 82.7981C116.343 82.7981 116.551 82.7239 116.71 82.5754C116.876 82.427 116.959 82.2456 116.959 82.0229C116.959 81.8909 116.918 81.7508 116.834 81.6188C116.751 81.4869 116.643 81.3714 116.518 81.2807C116.393 81.19 116.185 81.091 115.91 80.9756C115.627 80.8601 115.419 80.7529 115.261 80.6539C115.111 80.5632 114.978 80.4478 114.87 80.3158C114.761 80.1839 114.678 80.0519 114.628 79.9282C114.578 79.7963 114.553 79.6561 114.553 79.5076C114.553 79.153 114.695 78.8479 114.986 78.6005C115.278 78.3531 115.627 78.2294 116.035 78.2294C116.31 78.2294 116.585 78.2871 116.868 78.4025C117.151 78.518 117.384 78.6994 117.567 78.9386M110.166 78.3861H110.848V83.3506H110.166V78.3861ZM91.5493 77.8912L92.0738 76.8027H92.998L92.1238 77.8912H91.541H91.5493ZM104.038 78.3861H106.819V79.0623H104.721V80.2911H106.819V80.9673H104.721V82.6661H106.819V83.3424H104.038V78.3778V78.3861ZM98.2931 81.0498V82.7486H98.3431C98.9259 82.7486 99.3255 82.6579 99.5336 82.4682C99.7418 82.2786 99.85 82.0889 99.85 81.891C99.85 81.6353 99.7335 81.4291 99.492 81.2724C99.2506 81.1158 98.9259 81.0415 98.5179 81.0415H98.2931V81.0498ZM98.2931 78.9881V80.456C98.6678 80.456 98.9592 80.3818 99.1507 80.2416C99.3505 80.1014 99.4504 79.9117 99.4504 79.6726C99.4504 79.4664 99.3588 79.2932 99.184 79.1695C99.0008 79.0458 98.7594 78.9798 98.4596 78.9798C98.393 78.9798 98.3347 78.9798 98.2931 78.9798V78.9881ZM97.6104 78.3861H98.4013C98.9259 78.3861 99.3505 78.5015 99.6752 78.7242C100.008 78.9468 100.166 79.2355 100.166 79.5736C100.166 79.9942 99.9249 80.3405 99.4504 80.6209C100.2 80.8683 100.574 81.3054 100.574 81.9157C100.574 82.3445 100.383 82.6909 99.9916 82.9548C99.6002 83.2187 99.0841 83.3506 98.4263 83.3506H97.6021V78.3861H97.6104ZM91.9489 79.755L91.1497 81.5198H92.7565L91.9489 79.755ZM91.9489 78.1964L94.3134 83.3506H93.5974L93.0146 82.0806H90.8832L90.3004 83.3506H89.5844L91.9323 78.1964H91.9489ZM83.8397 78.3861H86.9202V79.0623H85.7213V83.3506H85.0386V79.0623H83.848V78.3861H83.8397ZM76.1718 78.1881L79.8767 81.9569V78.3861H80.5594V83.5815L76.8545 79.821V83.3506H76.1718V78.1881ZM72.0339 80.8766C72.0339 80.3323 71.8341 79.8705 71.4344 79.4911C71.0348 79.12 70.5436 78.9303 69.9608 78.9303C69.378 78.9303 68.9367 79.12 68.5371 79.4994C68.1458 79.8787 67.946 80.3405 67.946 80.8683C67.946 81.3961 68.1458 81.8662 68.5537 82.2456C68.9617 82.6167 69.4529 82.8064 70.044 82.8064C70.5852 82.8064 71.0515 82.6167 71.4428 82.2291C71.8341 81.8497 72.0339 81.3879 72.0339 80.8683V80.8766ZM67.23 80.8354C67.23 80.1179 67.5047 79.5076 68.0459 78.9963C68.5954 78.485 69.2448 78.2294 70.0107 78.2294C70.7767 78.2294 71.4011 78.485 71.9423 79.0046C72.4835 79.5159 72.7499 80.1344 72.7499 80.8436C72.7499 81.5941 72.4835 82.2291 71.9506 82.7404C71.4178 83.2599 70.7601 83.5156 69.9858 83.5156C69.2115 83.5156 68.5704 83.2517 68.0292 82.7321C67.4881 82.2126 67.2216 81.5776 67.2216 80.8354H67.23ZM64.0662 78.5592V79.3262C63.525 79.0623 63.0255 78.9386 62.5759 78.9386C61.9931 78.9386 61.5019 79.1283 61.1023 79.4994C60.7026 79.8705 60.5028 80.3323 60.5028 80.8683C60.5028 81.4044 60.7026 81.8827 61.1189 82.2538C61.5269 82.6249 62.0347 82.8064 62.6508 82.8064C63.1004 82.8064 63.5667 82.6662 64.0662 82.394V83.1692C63.6083 83.4084 63.1171 83.5321 62.5926 83.5321C61.8183 83.5321 61.1522 83.2764 60.6027 82.7486C60.0532 82.2291 59.7785 81.6023 59.7785 80.8683C59.7785 80.1344 60.0532 79.5324 60.5944 79.0128C61.1356 78.5015 61.7933 78.2459 62.5509 78.2459C63.0421 78.2459 63.55 78.3531 64.0745 78.5757L64.0662 78.5592ZM54.2585 78.9386L53.7007 79.3757C53.5509 79.2272 53.4176 79.1118 53.3011 79.0375C53.1845 78.9633 53.0097 78.9303 52.7849 78.9303C52.5351 78.9303 52.3436 78.9881 52.1854 79.0953C52.0356 79.2025 51.9523 79.3509 51.9523 79.5159C51.9523 79.6643 52.0189 79.7963 52.1521 79.9117C52.2853 80.0272 52.5101 80.1509 52.8348 80.2911C53.1595 80.4313 53.4093 80.555 53.5842 80.6704C53.7673 80.7859 53.9089 80.9178 54.0254 81.058C54.142 81.1982 54.2252 81.3549 54.2835 81.5116C54.3418 81.6683 54.3668 81.8332 54.3668 82.0146C54.3668 82.427 54.2169 82.7816 53.9089 83.0702C53.6091 83.3589 53.2345 83.5073 52.8099 83.5073C52.3853 83.5073 52.0189 83.3919 51.6942 83.1692C51.3695 82.9383 51.1281 82.6002 50.9532 82.1466L51.6359 81.9569C51.8857 82.5177 52.2687 82.7981 52.7766 82.7981C53.0263 82.7981 53.2345 82.7239 53.3927 82.5754C53.5592 82.427 53.6424 82.2456 53.6424 82.0229C53.6424 81.8909 53.6008 81.7508 53.5092 81.6188C53.426 81.4869 53.3177 81.3714 53.1928 81.2807C53.068 81.19 52.8598 81.091 52.5851 80.9756C52.302 80.8601 52.0939 80.7529 51.9357 80.6539C51.7858 80.5632 51.6526 80.4478 51.5444 80.3158C51.4361 80.1839 51.3529 80.0519 51.3029 79.9282C51.253 79.7963 51.228 79.6561 51.228 79.5076C51.228 79.153 51.3695 78.8479 51.6609 78.6005C51.9523 78.3531 52.302 78.2294 52.71 78.2294C52.9847 78.2294 53.2595 78.2871 53.5425 78.4025C53.8256 78.518 54.0587 78.6994 54.2419 78.9386H54.2585ZM45.0503 78.3861H47.8311V79.0623H45.733V80.2911H47.8311V80.9673H45.733V82.6661H47.8311V83.3424H45.0503V78.3778V78.3861ZM38.115 77.8005H37.5905V77.751C37.5905 77.5036 37.6654 77.3057 37.8153 77.149C37.9652 76.9923 38.1567 76.9099 38.3898 76.9099C38.5147 76.9099 38.6895 76.9676 38.9309 77.0748C39.1724 77.182 39.3389 77.2397 39.4222 77.2397C39.5137 77.2397 39.5803 77.215 39.622 77.1573C39.6636 77.1078 39.6886 77.0253 39.7052 76.9099H40.2214C40.2131 77.1985 40.1382 77.4129 40.005 77.5696C39.8717 77.7263 39.6886 77.8005 39.4555 77.8005C39.2806 77.8005 39.0808 77.7428 38.8727 77.6191C38.6562 77.5036 38.5063 77.4459 38.4147 77.4459C38.3232 77.4459 38.2566 77.4789 38.1983 77.5366C38.14 77.5944 38.115 77.6768 38.115 77.7758V77.8088V77.8005ZM40.9291 80.8766C40.9291 80.3323 40.7293 79.8705 40.3297 79.4911C39.93 79.12 39.4388 78.9303 38.856 78.9303C38.2732 78.9303 37.8319 79.12 37.4323 79.4994C37.041 79.8787 36.8412 80.3405 36.8412 80.8683C36.8412 81.3961 37.041 81.8662 37.449 82.2456C37.8569 82.6167 38.3481 82.8064 38.9393 82.8064C39.4804 82.8064 39.9467 82.6167 40.338 82.2291C40.7293 81.8497 40.9291 81.3879 40.9291 80.8683V80.8766ZM36.1252 80.8354C36.1252 80.1179 36.3999 79.5076 36.9411 78.9963C37.4906 78.485 38.14 78.2294 38.906 78.2294C39.6719 78.2294 40.2964 78.485 40.8375 79.0046C41.3787 79.5159 41.6451 80.1344 41.6451 80.8436C41.6451 81.5941 41.3787 82.2291 40.8459 82.7404C40.313 83.2599 39.6553 83.5156 38.881 83.5156C38.1067 83.5156 37.4656 83.2517 36.9244 82.7321C36.3833 82.2126 36.1169 81.5776 36.1169 80.8354H36.1252ZM30.3222 83.9527L30.5053 83.3424C29.9392 83.1445 29.4896 82.8146 29.1566 82.361C28.8236 81.9074 28.657 81.4044 28.657 80.8519C28.657 80.1344 28.9318 79.5159 29.473 78.9963C30.0141 78.485 30.6719 78.2294 31.4295 78.2294C31.9207 78.2294 32.4286 78.3366 32.9531 78.5592V79.3262C32.4119 79.0623 31.9124 78.9386 31.4628 78.9386C30.88 78.9386 30.3888 79.1283 29.9892 79.4994C29.5895 79.8705 29.3897 80.3323 29.3897 80.8683C29.3897 81.4044 29.5978 81.8827 30.0058 82.2538C30.4138 82.6249 30.9216 82.8064 31.5377 82.8064C31.9873 82.8064 32.4536 82.6662 32.9531 82.394V83.1692C32.4952 83.4084 32.004 83.5321 31.4711 83.5321C31.3213 83.5321 31.1547 83.5156 30.9799 83.4908L30.9133 83.6888C31.1214 83.7135 31.288 83.7795 31.4045 83.8867C31.5211 83.9939 31.5794 84.1176 31.5794 84.266C31.5794 84.4887 31.4711 84.6701 31.263 84.8103C31.0548 84.9505 30.7634 85.0165 30.4138 85.0165C30.2639 85.0165 30.0807 85 29.8809 84.967L29.9225 84.5134H30.0141L30.2306 84.5299C30.6968 84.5299 30.93 84.431 30.93 84.233C30.93 84.0599 30.7468 83.9691 30.3721 83.9691H30.3055L30.3222 83.9527ZM21.4553 78.3861H22.138V81.4374C22.138 81.891 22.2463 82.2373 22.4711 82.4847C22.6875 82.7321 23.0039 82.8558 23.4035 82.8558C23.8032 82.8558 24.1112 82.7404 24.336 82.5177C24.5608 82.2868 24.669 81.9652 24.669 81.5528V78.3861H25.3517V81.5116C25.3517 82.1219 25.1769 82.6084 24.8272 82.9713C24.4775 83.3341 24.0113 83.5156 23.4285 83.5156C22.8457 83.5156 22.3545 83.3341 21.9965 82.963C21.6385 82.5919 21.4553 82.0476 21.4553 81.3302V78.3943V78.3861ZM16.002 78.3861H16.6847V82.6744H18.3165V83.3506H16.002V78.3861ZM11.7143 80.8766C11.7143 80.3323 11.5144 79.8705 11.1148 79.4911C10.7152 79.12 10.224 78.9303 9.64116 78.9303C9.05836 78.9303 8.6171 79.12 8.21747 79.4994C7.82616 79.8787 7.62634 80.3405 7.62634 80.8683C7.62634 81.3961 7.82616 81.8662 8.23412 82.2456C8.64208 82.6167 9.1333 82.8064 9.72442 82.8064C10.2656 82.8064 10.7318 82.6167 11.1231 82.2291C11.5144 81.8497 11.7143 81.3879 11.7143 80.8683V80.8766ZM6.91034 80.8354C6.91034 80.1179 7.18508 79.5076 7.72625 78.9963C8.27575 78.485 8.92515 78.2294 9.69112 78.2294C10.4571 78.2294 11.0815 78.485 11.6227 79.0046C12.1638 79.5159 12.4303 80.1344 12.4303 80.8436C12.4303 81.5941 12.1638 82.2291 11.631 82.7404C11.0982 83.2599 10.4404 83.5156 9.66614 83.5156C8.89185 83.5156 8.25077 83.2517 7.7096 82.7321C7.16843 82.2126 6.90201 81.5776 6.90201 80.8354H6.91034ZM3.59671 78.9386L3.03889 79.3757C2.88903 79.2272 2.75582 79.1118 2.63926 79.0375C2.5227 78.9633 2.34786 78.9303 2.12306 78.9303C1.87329 78.9303 1.6818 78.9881 1.52361 79.0953C1.37375 79.2025 1.2905 79.3509 1.2905 79.5159C1.2905 79.6643 1.3571 79.7963 1.49031 79.9117C1.62352 80.0272 1.84832 80.1509 2.17302 80.2911C2.49772 80.4313 2.74749 80.555 2.92233 80.6704C3.1055 80.7859 3.24703 80.9178 3.36359 81.058C3.48015 81.1982 3.56341 81.3549 3.62169 81.5116C3.67997 81.6683 3.70495 81.8332 3.70495 82.0146C3.70495 82.427 3.55508 82.7816 3.24703 83.0702C2.94731 83.3589 2.57265 83.5073 2.14804 83.5073C1.72343 83.5073 1.3571 83.3919 1.0324 83.1692C0.707697 82.9383 0.466252 82.6002 0.291412 82.1466L0.974119 81.9569C1.22389 82.5177 1.60687 82.7981 2.11474 82.7981C2.36451 82.7981 2.57265 82.7239 2.73084 82.5754C2.89735 82.427 2.98061 82.2456 2.98061 82.0229C2.98061 81.8909 2.93898 81.7508 2.85573 81.6188C2.77247 81.4869 2.66423 81.3714 2.53935 81.2807C2.41446 81.19 2.20632 81.091 1.93157 80.9756C1.6485 80.8601 1.44036 80.7529 1.28217 80.6539C1.13231 80.5632 0.999096 80.4478 0.890862 80.3158C0.782628 80.1839 0.699371 80.0519 0.649417 79.9282C0.599463 79.7963 0.574486 79.6561 0.574486 79.5076C0.574486 79.153 0.716023 78.8479 1.00742 78.6005C1.29882 78.3531 1.6485 78.2294 2.05646 78.2294C2.33121 78.2294 2.60595 78.2871 2.88903 78.4025C3.1721 78.518 3.40522 78.6994 3.58839 78.9386H3.59671Z" fill="white"/>
</g>
<defs>
<clipPath id="clip0_1_3">
<rect width="118" height="85" fill="white"/>
</clipPath>
</defs>
</svg>
