<svg width="193" height="45" viewBox="0 0 193 45" fill="none" xmlns="http://www.w3.org/2000/svg">
<g clip-path="url(#clip0_14_2)">
<path fill-rule="evenodd" clip-rule="evenodd" d="M42.78 28.33C43.89 26.95 44.93 25.5 45.9 24.05H45.79C42.91 24.05 42.79 24.11 42.79 25.46V28.33H42.78Z" fill="#D2AB67"/>
<path d="M42.78 4.53001C42.78 2.72001 42.97 2.46001 46.93 2.46001C54.02 2.46001 57.16 7.31001 57.16 12.41C57.16 16.81 55.69 19.07 53.96 20.43C52.11 21.85 49.68 22.11 47.38 22.11C44.12 22.11 43.16 21.98 42.97 21.79C42.78 21.53 42.78 20.82 42.78 19.66V4.53001ZM37.54 33.61C37.54 40.39 37.41 41.23 33.71 41.68L32.11 41.87C31.73 42.32 31.85 43.3 32.24 43.5C35.24 43.37 37.54 43.33 40.23 43.33C42.92 43.33 44.96 43.37 47.84 43.5C48.22 43.31 48.35 42.2 47.97 41.87L46.63 41.68C42.92 41.16 42.8 40.39 42.8 33.61V25.47C42.8 24.12 42.93 24.06 45.8 24.06C48.36 24.06 49.38 24.71 50.34 26.12C52.32 29.03 54.94 33.49 56.6 35.87C61.14 42.42 64.4 44.04 69.83 44.04C71.04 44.04 72.07 43.91 72.64 43.72C72.96 43.46 72.9 42.94 72.58 42.81C70.85 42.68 69.26 41.97 68.17 41C63.82 37.32 60.44 32.14 55.32 23.81C55 23.29 54.68 22.65 55 22.26C58.2 20.97 62.99 17.61 62.99 11.47C62.99 6.95001 60.75 4.04001 57.69 2.42001C54.75 0.800012 50.98 0.480011 47.02 0.480011C40.76 0.480011 36.35 0.670011 32.77 1.00001C32.26 1.26001 32.26 2.29001 32.71 2.62001L34.76 2.88001C37.38 3.20001 37.57 4.30001 37.57 10.44V33.63L37.54 33.61Z" fill="white"/>
<path fill-rule="evenodd" clip-rule="evenodd" d="M37.54 33.23V29.84C29.03 38.47 10.06 47.02 2.53 33.39C8.02 47.21 27.95 41.21 37.54 33.23Z" fill="#BA8B49"/>
<path fill-rule="evenodd" clip-rule="evenodd" d="M46.92 22.1C48.39 19.47 49.9 16.53 50.76 13.64L52.63 14.02C52.89 9.79001 52.69 5.08001 51.59 0.950012C49.95 9.27001 47.43 16.17 43.72 22.05C44.33 22.08 45.06 22.09 45.83 22.1V22.08L46.92 22.1Z" fill="#BA8B49"/>
<path fill-rule="evenodd" clip-rule="evenodd" d="M51.58 0.949995C49.53 4.88 46.45 8.34 43.7 11.83C46.93 12.65 42.72 11.58 45.44 12.28V12.38H45.43V12.45V12.48V12.51V12.57L45.42 12.59L45.4 12.69L45.39 12.75V12.8L45.37 12.87V12.9L45.36 12.92V12.98L45.34 13V13.04L45.32 13.1L45.31 13.16V13.21H45.3V13.27L45.28 13.31V13.33C45.26 13.39 45.24 13.45 45.23 13.51V13.52L45.2 13.63L45.18 13.72V13.74V13.76L45.16 13.82V13.85L45.14 13.88L45.12 13.94L45.09 14.06L45.06 14.16V14.18C45.04 14.24 45.02 14.3 45 14.37V14.39L44.98 14.43L44.96 14.49L44.94 14.55L44.92 14.6C44.9 14.67 44.88 14.74 44.86 14.8V14.82L44.82 14.92L44.78 15.04C44.76 15.11 44.73 15.18 44.71 15.24V15.27L44.69 15.31L44.67 15.37L44.63 15.49L44.59 15.6V15.62L44.56 15.68V15.71L44.51 15.81L44.49 15.87L44.46 15.93L44.43 15.99L44.41 16.04V16.06C44.11 16.76 43.51 18.07 42.86 19.29C42.86 19.96 42.85 20.6 42.85 21.08V21.2V21.24V21.27V21.29C42.85 21.53 42.85 21.81 42.89 21.87C42.9 21.92 42.92 21.95 42.95 21.96H43.04H43.08C43.29 21.98 43.53 21.99 43.79 22C47.5 16.12 50.02 9.21999 51.66 0.899994" fill="#D2AB67"/>
<path fill-rule="evenodd" clip-rule="evenodd" d="M20.76 20.52V16.85L17.58 17.91V18.83L20.33 20.29C20.47 20.36 20.62 20.44 20.76 20.52ZM23.93 36.07C22.88 36.57 21.82 37.03 20.76 37.43V27.88C20.01 27.26 19.08 26.64 17.96 26.02L17.59 25.81V38.54C17.39 38.58 16.67 38.62 16.47 38.66V25.19L13.29 23.43V38.97C13.09 38.97 12.37 38.96 12.17 38.94V24.34L8.99 25.4V38.16C7.1 37.45 4.84 36.23 3.31 34.4C3.2 34.27 3.1 34.14 2.99 34.01L2.94 33.95C2.8 33.77 2.67 33.59 2.53 33.4C6.81 41.15 14.78 41.72 22.43 39.2C23.23 38.29 23.73 37.21 23.94 36.08L23.93 36.07ZM37.54 29.84V26.45C35.45 28.56 32.7 30.82 29.61 32.85C29.56 34.09 29.31 35.26 28.87 36.34C32.23 34.46 35.26 32.16 37.54 29.85V29.84Z" fill="#D2AB67"/>
<path fill-rule="evenodd" clip-rule="evenodd" d="M37.54 29.84V26.45C33.58 30.44 27.25 35 20.77 37.44V16.86L17.59 17.92V38.54C17.39 38.58 16.67 38.62 16.47 38.66V20.08L13.29 21.14V38.98C13.09 38.98 12.37 38.97 12.17 38.95V24.35L8.99 25.41V38.17C7.1 37.46 4.84 36.24 3.31 34.41C3.2 34.28 3.1 34.15 2.99 34.02L2.94 33.96C2.8 33.78 2.67 33.6 2.53 33.41C10.06 47.04 29.03 38.48 37.54 29.86" fill="#D2AB67"/>
<path fill-rule="evenodd" clip-rule="evenodd" d="M29.61 32.84C27.81 34.02 25.9 35.12 23.94 36.07C23.73 37.2 23.23 38.28 22.43 39.19C24.64 38.46 26.81 37.48 28.87 36.33C29.31 35.25 29.56 34.09 29.61 32.84Z" fill="#D2AB67"/>
<path d="M29.62 32.38C29.62 26.4 25.02 22.75 20.34 20.29L14.4 17.14C11.65 15.69 8.09 13.05 8.09 9.40001C8.09 6.50001 9.65 2.41001 16.93 2.41001C24.21 2.41001 26.06 6.50001 27.03 9.52001C27.4 9.90001 28.59 9.71001 28.89 9.33001C28.89 6.69001 28.22 3.16001 27.55 1.65001C26.96 1.65001 25.92 1.52001 24.95 1.27001C23.02 0.830012 20.35 0.450012 18.04 0.450012C8.39 0.450012 2.89 5.30001 2.89 11.28C2.89 16.44 7.2 20.03 10.91 22.11L17.96 26.01C23.38 28.97 24.05 32.05 24.05 34.82C24.05 38.6 21.01 42.06 14.77 42.06C6.16 42.06 3.11 35.89 2 32.68C1.7 32.3 0.590001 32.43 0.220001 32.87C0.370001 35.83 1.33 40.3 2.23 41.68C3.64 42.37 7.58 44.01 13.81 44.01C23.46 44.01 29.63 39.29 29.63 32.36" fill="white"/>
<path fill-rule="evenodd" clip-rule="evenodd" d="M16.46 25.51V20.07L13.28 21.13V23.75L16.46 25.51Z" fill="#D2AB67"/>
<path fill-rule="evenodd" clip-rule="evenodd" d="M20.76 28.32V20.36C20.62 20.28 20.47 20.21 20.33 20.13L17.58 18.67V26.25L17.95 26.46C19.08 27.08 20 27.7 20.75 28.32" fill="#D2AB67"/>
<path d="M155.83 11.94L155.03 12.59C154.82 12.37 154.62 12.21 154.45 12.1C154.28 11.99 154.03 11.94 153.7 11.94C153.34 11.94 153.05 12.02 152.83 12.18C152.61 12.34 152.5 12.55 152.5 12.8C152.5 13.02 152.6 13.21 152.79 13.38C152.98 13.55 153.31 13.73 153.78 13.94C154.25 14.14 154.61 14.33 154.87 14.5C155.13 14.67 155.34 14.86 155.51 15.07C155.68 15.28 155.8 15.5 155.88 15.73C155.96 15.96 156 16.21 156 16.46C156 17.06 155.78 17.58 155.34 18C154.9 18.43 154.37 18.64 153.74 18.64C153.11 18.64 152.59 18.47 152.13 18.14C151.66 17.81 151.31 17.31 151.05 16.64L152.04 16.36C152.4 17.18 152.95 17.59 153.69 17.59C154.05 17.59 154.35 17.48 154.59 17.27C154.83 17.05 154.95 16.78 154.95 16.46C154.95 16.26 154.89 16.07 154.76 15.87C154.64 15.67 154.48 15.51 154.3 15.38C154.11 15.25 153.82 15.1 153.41 14.93C153 14.76 152.69 14.6 152.47 14.46C152.25 14.32 152.06 14.16 151.9 13.96C151.74 13.77 151.62 13.58 151.55 13.39C151.48 13.2 151.44 13 151.44 12.78C151.44 12.26 151.65 11.82 152.07 11.45C152.49 11.08 153 10.9 153.59 10.9C153.99 10.9 154.39 10.99 154.8 11.16C155.21 11.33 155.54 11.59 155.82 11.94H155.83ZM142.47 11.14H146.51V12.13H143.47V13.93H146.51V14.92H143.47V17.41H146.51V18.4H142.47V11.13V11.14ZM132.4 10.27H131.64V10.2C131.64 9.84 131.75 9.55 131.97 9.32C132.19 9.09 132.47 8.97 132.81 8.97C132.99 8.97 133.25 9.05 133.6 9.21C133.95 9.37 134.19 9.45 134.31 9.45C134.44 9.45 134.54 9.41 134.6 9.34C134.66 9.26 134.7 9.14 134.72 8.98H135.47C135.45 9.4 135.35 9.72 135.15 9.94C134.95 10.16 134.69 10.28 134.35 10.28C134.09 10.28 133.81 10.19 133.5 10.01C133.19 9.84 132.97 9.75 132.83 9.75C132.7 9.75 132.6 9.79 132.52 9.89C132.44 9.98 132.4 10.1 132.4 10.24V10.29V10.27ZM136.49 14.78C136.49 13.98 136.2 13.3 135.62 12.75C135.04 12.2 134.33 11.93 133.48 11.93C132.63 11.93 131.99 12.21 131.42 12.77C130.85 13.33 130.56 14 130.56 14.78C130.56 15.56 130.85 16.24 131.44 16.79C132.03 17.34 132.75 17.61 133.6 17.61C134.39 17.61 135.06 17.33 135.63 16.77C136.2 16.21 136.48 15.54 136.48 14.77L136.49 14.78ZM129.52 14.72C129.52 13.67 129.92 12.77 130.71 12.02C131.5 11.27 132.45 10.9 133.57 10.9C134.69 10.9 135.59 11.28 136.37 12.03C137.15 12.78 137.55 13.68 137.55 14.72C137.55 15.82 137.16 16.75 136.39 17.5C135.61 18.26 134.66 18.64 133.54 18.64C132.42 18.64 131.48 18.26 130.7 17.49C129.92 16.73 129.53 15.8 129.53 14.71L129.52 14.72ZM121.1 19.29L121.37 18.4C120.54 18.11 119.89 17.63 119.41 16.96C118.93 16.29 118.69 15.55 118.69 14.75C118.69 13.69 119.08 12.79 119.87 12.04C120.66 11.29 121.6 10.91 122.71 10.91C123.42 10.91 124.16 11.07 124.92 11.39V12.51C124.14 12.13 123.41 11.94 122.75 11.94C121.91 11.94 121.19 12.21 120.61 12.76C120.03 13.31 119.74 13.97 119.74 14.77C119.74 15.57 120.04 16.25 120.63 16.8C121.22 17.34 121.96 17.61 122.85 17.61C123.5 17.61 124.18 17.41 124.91 17V18.13C124.25 18.48 123.54 18.66 122.77 18.66C122.55 18.66 122.32 18.64 122.06 18.6L121.97 18.89C122.28 18.93 122.52 19.02 122.69 19.18C122.86 19.33 122.94 19.52 122.94 19.74C122.94 20.07 122.79 20.33 122.48 20.54C122.17 20.74 121.76 20.84 121.24 20.84C121.02 20.84 120.76 20.82 120.47 20.77L120.53 20.1H120.66L120.97 20.12C121.65 20.12 121.99 19.98 121.99 19.69C121.99 19.43 121.72 19.31 121.18 19.31H121.09L121.1 19.29ZM108.23 11.14H109.22V15.61C109.22 16.27 109.38 16.78 109.7 17.15C110.02 17.51 110.47 17.69 111.05 17.69C111.63 17.69 112.08 17.52 112.4 17.19C112.72 16.86 112.88 16.39 112.88 15.78V11.14H113.87V15.71C113.87 16.6 113.62 17.31 113.11 17.85C112.6 18.38 111.92 18.65 111.08 18.65C110.24 18.65 109.52 18.38 109 17.84C108.48 17.3 108.22 16.5 108.22 15.45V11.14H108.23ZM100.32 11.14H101.31V17.42H103.67V18.41H100.31V11.14H100.32ZM94.1 14.78C94.1 13.98 93.81 13.3 93.23 12.75C92.65 12.2 91.94 11.93 91.09 11.93C90.24 11.93 89.6 12.21 89.03 12.77C88.46 13.33 88.17 14 88.17 14.78C88.17 15.56 88.46 16.24 89.05 16.79C89.64 17.34 90.36 17.61 91.21 17.61C92 17.61 92.67 17.33 93.24 16.77C93.81 16.21 94.09 15.54 94.09 14.77L94.1 14.78ZM87.13 14.72C87.13 13.67 87.53 12.77 88.32 12.02C89.11 11.27 90.06 10.9 91.18 10.9C92.3 10.9 93.2 11.28 93.99 12.03C94.77 12.78 95.17 13.68 95.17 14.72C95.17 15.82 94.78 16.75 94.01 17.5C93.23 18.26 92.28 18.64 91.16 18.64C90.04 18.64 89.1 18.26 88.32 17.49C87.54 16.73 87.15 15.8 87.15 14.71L87.13 14.72ZM82.32 11.94L81.51 12.59C81.3 12.37 81.1 12.21 80.93 12.1C80.76 11.99 80.51 11.94 80.18 11.94C79.82 11.94 79.53 12.02 79.31 12.18C79.09 12.34 78.98 12.55 78.98 12.8C78.98 13.02 79.08 13.21 79.27 13.38C79.46 13.55 79.79 13.73 80.26 13.94C80.73 14.14 81.09 14.33 81.35 14.5C81.61 14.67 81.82 14.86 81.99 15.07C82.16 15.28 82.28 15.5 82.36 15.73C82.44 15.96 82.48 16.21 82.48 16.46C82.48 17.06 82.26 17.58 81.82 18C81.38 18.43 80.85 18.64 80.22 18.64C79.59 18.64 79.07 18.47 78.61 18.14C78.14 17.81 77.79 17.31 77.53 16.64L78.52 16.36C78.88 17.18 79.43 17.59 80.18 17.59C80.54 17.59 80.84 17.48 81.08 17.27C81.32 17.05 81.44 16.78 81.44 16.46C81.44 16.26 81.38 16.07 81.25 15.87C81.13 15.67 80.97 15.51 80.79 15.38C80.6 15.25 80.31 15.1 79.9 14.93C79.49 14.76 79.18 14.6 78.96 14.46C78.74 14.32 78.55 14.16 78.39 13.96C78.23 13.77 78.11 13.58 78.04 13.39C77.97 13.2 77.93 13 77.93 12.78C77.93 12.26 78.14 11.82 78.56 11.45C78.98 11.08 79.49 10.9 80.08 10.9C80.48 10.9 80.88 10.99 81.29 11.16C81.7 11.33 82.03 11.59 82.31 11.94H82.32Z" fill="white"/>
<path d="M191.8 25.59L190.7 26.47C190.41 26.17 190.15 25.94 189.91 25.8C189.68 25.65 189.33 25.58 188.89 25.58C188.4 25.58 188.01 25.69 187.7 25.91C187.4 26.13 187.24 26.41 187.24 26.76C187.24 27.06 187.37 27.33 187.64 27.55C187.91 27.78 188.36 28.03 189 28.31C189.64 28.58 190.14 28.84 190.49 29.08C190.85 29.32 191.14 29.58 191.37 29.86C191.6 30.15 191.77 30.45 191.88 30.77C191.99 31.08 192.05 31.42 192.05 31.78C192.05 32.61 191.75 33.31 191.15 33.89C190.55 34.47 189.82 34.76 188.96 34.76C188.1 34.76 187.39 34.53 186.75 34.08C186.11 33.62 185.62 32.94 185.28 32.03L186.64 31.64C187.13 32.76 187.89 33.32 188.9 33.32C189.39 33.32 189.8 33.17 190.13 32.88C190.46 32.58 190.62 32.21 190.62 31.76C190.62 31.49 190.53 31.22 190.36 30.95C190.19 30.68 189.98 30.45 189.73 30.28C189.48 30.1 189.07 29.9 188.52 29.67C187.97 29.44 187.54 29.22 187.24 29.03C186.94 28.84 186.68 28.62 186.46 28.35C186.24 28.09 186.08 27.83 185.98 27.57C185.88 27.31 185.83 27.03 185.83 26.73C185.83 26.02 186.12 25.41 186.69 24.91C187.26 24.41 187.96 24.16 188.78 24.16C189.32 24.16 189.87 24.28 190.43 24.51C190.99 24.74 191.45 25.1 191.82 25.58" fill="white"/>
<path d="M178.46 24.49H177.1V34.45H178.46V24.49Z" fill="white"/>
<path d="M140.14 23.5L141.18 21.32H143.02L141.29 23.5H140.14Z" fill="white"/>
<path d="M164.93 24.49H170.45V25.85H166.29V28.31H170.45V29.67H166.29V33.08H170.45V34.44H164.93V24.49Z" fill="white"/>
<path d="M155.83 28.98C156.78 28.42 157.25 27.72 157.25 26.87C157.25 26.18 156.92 25.61 156.27 25.16C155.61 24.71 154.77 24.48 153.74 24.48H152.17V34.44H153.8C155.1 34.44 156.13 34.18 156.9 33.65C157.67 33.12 158.06 32.43 158.06 31.57C158.06 30.33 157.32 29.47 155.83 28.97V28.98ZM153.52 25.69C153.61 25.68 153.73 25.67 153.85 25.67C154.45 25.67 154.93 25.8 155.29 26.05C155.65 26.3 155.83 26.64 155.83 27.06C155.83 27.55 155.63 27.92 155.23 28.2C154.84 28.47 154.26 28.62 153.52 28.63V25.68V25.69ZM156 32.66C155.58 33.04 154.79 33.22 153.63 33.22H153.52V29.81H153.97C154.79 29.81 155.44 29.96 155.91 30.27C156.38 30.58 156.62 30.99 156.62 31.5C156.62 31.89 156.41 32.27 155.99 32.65L156 32.66Z" fill="white"/>
<path d="M140.93 24.1L136.26 34.44H137.67L138.82 31.89H143.05L144.21 34.44H145.63L140.93 24.1ZM139.34 30.76L140.94 27.23L142.54 30.76H139.34Z" fill="white"/>
<path d="M124.82 24.49H130.94V25.85H128.55V34.44H127.19V25.85H124.82V24.49Z" fill="white"/>
<path d="M109.59 24.09L116.96 31.65V24.49H118.32V34.91L110.95 27.37V34.44H109.59V24.09Z" fill="white"/>
<path d="M101.21 25.72C100.13 24.69 98.86 24.17 97.37 24.17C95.88 24.17 94.55 24.68 93.46 25.71C92.38 26.73 91.84 27.96 91.84 29.4C91.84 30.84 92.37 32.15 93.44 33.2C94.51 34.25 95.8 34.77 97.32 34.77C98.84 34.77 100.16 34.25 101.22 33.21C102.28 32.17 102.81 30.9 102.81 29.4C102.81 27.98 102.27 26.75 101.2 25.72H101.21ZM100.21 32.21C99.43 32.98 98.5 33.36 97.43 33.36C96.26 33.36 95.28 32.98 94.47 32.23C93.66 31.48 93.26 30.56 93.26 29.47C93.26 28.38 93.65 27.48 94.44 26.72C95.22 25.95 96.17 25.57 97.27 25.57C98.43 25.57 99.4 25.95 100.2 26.7C100.99 27.45 101.39 28.38 101.39 29.47C101.39 30.56 101 31.44 100.22 32.2L100.21 32.21Z" fill="white"/>
<path d="M85.55 24.82V26.36C84.48 25.84 83.49 25.58 82.59 25.58C81.43 25.58 80.46 25.95 79.67 26.7C78.88 27.45 78.48 28.36 78.48 29.45C78.48 30.54 78.88 31.48 79.7 32.22C80.51 32.96 81.52 33.33 82.74 33.33C83.63 33.33 84.56 33.05 85.55 32.5V34.05C84.65 34.53 83.67 34.77 82.62 34.77C81.08 34.77 79.76 34.25 78.66 33.21C77.56 32.17 77.02 30.91 77.02 29.44C77.02 27.97 77.56 26.76 78.63 25.73C79.71 24.7 81 24.19 82.52 24.19C83.49 24.19 84.5 24.41 85.55 24.85V24.82Z" fill="white"/>
</g>
<defs>
<clipPath id="clip0_14_2">
<rect width="193" height="45" fill="white"/>
</clipPath>
</defs>
</svg>
