<svg width="193" height="45" viewBox="0 0 193 45" fill="none" xmlns="http://www.w3.org/2000/svg">
<g clip-path="url(#clip0_14_26)">
<path fill-rule="evenodd" clip-rule="evenodd" d="M43.02 28.47C44.13 27.09 45.17 25.64 46.14 24.19H46.03C43.15 24.19 43.03 24.25 43.03 25.6V28.47H43.02Z" fill="#D2AB67"/>
<path d="M43.02 4.66999C43.02 2.85999 43.21 2.59999 47.17 2.59999C54.26 2.59999 57.4 7.44999 57.4 12.55C57.4 16.95 55.93 19.21 54.2 20.57C52.35 21.99 49.92 22.25 47.62 22.25C44.36 22.25 43.4 22.12 43.21 21.93C43.02 21.67 43.02 20.96 43.02 19.8V4.66999ZM37.77 33.75C37.77 40.53 37.64 41.37 33.94 41.82L32.34 42.01C31.96 42.46 32.08 43.44 32.47 43.64C35.47 43.51 37.77 43.47 40.46 43.47C43.15 43.47 45.19 43.51 48.07 43.64C48.45 43.45 48.58 42.34 48.2 42.01L46.86 41.82C43.15 41.3 43.03 40.53 43.03 33.75V25.61C43.03 24.26 43.16 24.2 46.03 24.2C48.59 24.2 49.61 24.85 50.57 26.26C52.55 29.17 55.17 33.63 56.83 36.01C61.37 42.56 64.63 44.18 70.06 44.18C71.27 44.18 72.3 44.05 72.87 43.86C73.19 43.6 73.13 43.08 72.81 42.95C71.08 42.82 69.49 42.11 68.4 41.14C64.05 37.46 60.67 32.28 55.55 23.95C55.23 23.43 54.91 22.79 55.23 22.4C58.43 21.11 63.22 17.75 63.22 11.61C63.22 7.08999 60.98 4.17999 57.92 2.55999C54.98 0.939994 51.21 0.619995 47.25 0.619995C40.99 0.619995 36.58 0.809994 33 1.13999C32.49 1.39999 32.49 2.42999 32.94 2.75999L34.99 3.01999C37.61 3.33999 37.8 4.44 37.8 10.58V33.77L37.77 33.75Z" fill="#14110B"/>
<path fill-rule="evenodd" clip-rule="evenodd" d="M37.77 33.37V29.98C29.26 38.61 10.29 47.16 2.76 33.53C8.25 47.35 28.18 41.35 37.77 33.37Z" fill="#BA8B49"/>
<path fill-rule="evenodd" clip-rule="evenodd" d="M47.16 22.24C48.63 19.61 50.14 16.67 51 13.78L52.87 14.16C53.13 9.93 52.93 5.22 51.83 1.09C50.19 9.41 47.67 16.31 43.96 22.19C44.57 22.22 45.3 22.23 46.07 22.24V22.22L47.16 22.24Z" fill="#BA8B49"/>
<path fill-rule="evenodd" clip-rule="evenodd" d="M51.82 1.09001C49.77 5.02001 46.69 8.48001 43.94 11.97C47.17 12.79 42.96 11.72 45.68 12.42V12.52H45.67V12.59V12.62V12.65V12.71L45.66 12.73L45.64 12.83L45.63 12.89V12.94L45.61 13.01V13.04L45.6 13.06V13.12L45.58 13.14V13.18L45.56 13.24L45.55 13.3V13.35H45.54V13.41L45.52 13.45V13.47C45.5 13.53 45.48 13.59 45.47 13.65V13.66L45.44 13.77L45.42 13.86V13.88V13.9L45.4 13.96V13.99L45.38 14.02L45.36 14.08L45.33 14.2L45.3 14.3V14.32C45.28 14.38 45.26 14.44 45.24 14.51V14.53L45.22 14.57L45.2 14.63L45.18 14.69L45.16 14.74C45.14 14.81 45.12 14.88 45.1 14.94V14.96L45.06 15.06L45.02 15.18C45 15.25 44.97 15.32 44.95 15.38V15.41L44.93 15.45L44.91 15.51L44.87 15.63L44.83 15.74V15.76L44.8 15.82V15.85L44.75 15.95L44.73 16.01L44.7 16.07L44.67 16.13L44.65 16.18V16.2C44.35 16.9 43.75 18.21 43.1 19.43C43.1 20.1 43.09 20.74 43.09 21.22V21.34V21.38V21.41V21.43C43.09 21.67 43.09 21.95 43.13 22.01C43.14 22.06 43.16 22.09 43.19 22.1H43.28H43.32C43.53 22.12 43.77 22.13 44.03 22.14C47.74 16.26 50.26 9.36001 51.9 1.04001" fill="#D2AB67"/>
<path fill-rule="evenodd" clip-rule="evenodd" d="M21 20.66V16.99L17.82 18.05V18.97L20.57 20.43C20.71 20.5 20.86 20.58 21 20.66ZM24.17 36.21C23.12 36.71 22.06 37.17 21 37.57V28.02C20.25 27.4 19.32 26.78 18.2 26.16L17.83 25.95V38.68C17.63 38.72 16.91 38.76 16.71 38.8V25.33L13.53 23.57V39.11C13.33 39.11 12.61 39.1 12.41 39.08V24.48L9.23 25.54V38.3C7.34 37.59 5.08 36.37 3.55 34.54C3.44 34.41 3.34 34.28 3.23 34.15L3.18 34.09C3.04 33.91 2.91 33.73 2.77 33.54C7.05 41.29 15.02 41.86 22.67 39.34C23.47 38.43 23.97 37.35 24.18 36.22L24.17 36.21ZM37.77 29.98V26.59C35.68 28.7 32.93 30.96 29.84 32.99C29.79 34.23 29.54 35.4 29.1 36.48C32.46 34.6 35.49 32.3 37.77 29.99V29.98Z" fill="#D2AB67"/>
<path fill-rule="evenodd" clip-rule="evenodd" d="M37.77 29.98V26.59C33.81 30.58 27.48 35.14 21 37.58V17L17.82 18.06V38.68C17.62 38.72 16.9 38.76 16.7 38.8V20.22L13.52 21.28V39.12C13.32 39.12 12.6 39.11 12.4 39.09V24.49L9.22 25.55V38.31C7.33 37.6 5.07 36.38 3.54 34.55C3.43 34.42 3.33 34.29 3.22 34.16L3.17 34.1C3.03 33.92 2.9 33.74 2.76 33.55C10.29 47.18 29.26 38.62 37.77 30" fill="#D2AB67"/>
<path fill-rule="evenodd" clip-rule="evenodd" d="M29.85 32.99C28.05 34.17 26.14 35.27 24.18 36.22C23.97 37.35 23.47 38.43 22.67 39.34C24.88 38.61 27.05 37.63 29.11 36.48C29.55 35.4 29.8 34.24 29.85 32.99Z" fill="#D2AB67"/>
<path d="M29.86 32.52C29.86 26.54 25.26 22.89 20.58 20.43L14.64 17.28C11.89 15.83 8.33 13.19 8.33 9.54C8.33 6.64 9.89 2.55 17.17 2.55C24.45 2.55 26.3 6.64 27.27 9.66C27.64 10.04 28.83 9.85 29.13 9.47C29.13 6.83 28.46 3.3 27.79 1.79C27.2 1.79 26.16 1.66 25.19 1.41C23.26 0.969996 20.59 0.589996 18.28 0.589996C8.63 0.589996 3.13 5.43999 3.13 11.42C3.13 16.58 7.44 20.17 11.15 22.25L18.2 26.15C23.62 29.11 24.29 32.19 24.29 34.96C24.29 38.74 21.25 42.2 15.01 42.2C6.4 42.2 3.35 36.03 2.24 32.82C1.94 32.44 0.829999 32.57 0.459999 33.01C0.609999 35.97 1.57 40.44 2.47 41.82C3.88 42.51 7.82 44.15 14.05 44.15C23.7 44.15 29.87 39.43 29.87 32.5" fill="#14110B"/>
<path fill-rule="evenodd" clip-rule="evenodd" d="M16.7 25.65V20.22L13.52 21.28V23.89L16.7 25.65Z" fill="#D2AB67"/>
<path fill-rule="evenodd" clip-rule="evenodd" d="M21 28.46V20.5C20.86 20.42 20.71 20.35 20.57 20.27L17.82 18.81V26.39L18.19 26.6C19.32 27.22 20.24 27.84 20.99 28.46" fill="#D2AB67"/>
<path d="M156.07 12.08L155.27 12.73C155.06 12.51 154.86 12.35 154.69 12.24C154.52 12.13 154.27 12.08 153.94 12.08C153.58 12.08 153.29 12.16 153.07 12.32C152.85 12.48 152.74 12.69 152.74 12.94C152.74 13.16 152.84 13.35 153.03 13.52C153.22 13.69 153.55 13.87 154.02 14.08C154.49 14.28 154.85 14.47 155.11 14.64C155.37 14.81 155.58 15 155.75 15.21C155.92 15.42 156.04 15.64 156.12 15.87C156.2 16.1 156.24 16.35 156.24 16.6C156.24 17.2 156.02 17.72 155.58 18.14C155.14 18.57 154.61 18.78 153.98 18.78C153.35 18.78 152.83 18.61 152.37 18.28C151.9 17.95 151.55 17.45 151.29 16.78L152.28 16.5C152.64 17.32 153.19 17.73 153.93 17.73C154.29 17.73 154.59 17.62 154.83 17.41C155.07 17.19 155.19 16.92 155.19 16.6C155.19 16.4 155.13 16.21 155 16.01C154.88 15.81 154.72 15.65 154.54 15.52C154.35 15.39 154.06 15.24 153.65 15.07C153.24 14.9 152.93 14.74 152.71 14.6C152.49 14.46 152.3 14.3 152.14 14.1C151.98 13.91 151.86 13.72 151.79 13.53C151.72 13.34 151.68 13.14 151.68 12.92C151.68 12.4 151.89 11.96 152.31 11.59C152.73 11.22 153.24 11.04 153.83 11.04C154.23 11.04 154.63 11.13 155.04 11.3C155.45 11.47 155.78 11.73 156.06 12.08H156.07ZM142.71 11.28H146.75V12.27H143.71V14.07H146.75V15.06H143.71V17.55H146.75V18.54H142.71V11.27V11.28ZM132.64 10.41H131.88V10.34C131.88 9.97998 131.99 9.68998 132.21 9.45998C132.43 9.22998 132.71 9.10999 133.05 9.10999C133.23 9.10999 133.49 9.18998 133.84 9.34998C134.19 9.50998 134.43 9.58998 134.55 9.58998C134.68 9.58998 134.78 9.54998 134.84 9.47998C134.9 9.39998 134.94 9.27998 134.96 9.11998H135.71C135.69 9.53998 135.59 9.85999 135.39 10.08C135.19 10.3 134.93 10.42 134.59 10.42C134.33 10.42 134.05 10.33 133.74 10.15C133.43 9.97999 133.21 9.88998 133.07 9.88998C132.94 9.88998 132.84 9.92998 132.76 10.03C132.68 10.12 132.64 10.24 132.64 10.38V10.43V10.41ZM136.73 14.92C136.73 14.12 136.44 13.44 135.86 12.89C135.28 12.34 134.57 12.07 133.72 12.07C132.87 12.07 132.23 12.35 131.66 12.91C131.09 13.47 130.8 14.14 130.8 14.92C130.8 15.7 131.09 16.38 131.68 16.93C132.27 17.48 132.99 17.75 133.84 17.75C134.63 17.75 135.3 17.47 135.87 16.91C136.44 16.35 136.72 15.68 136.72 14.91L136.73 14.92ZM129.76 14.87C129.76 13.82 130.16 12.92 130.95 12.17C131.74 11.42 132.69 11.05 133.81 11.05C134.93 11.05 135.83 11.43 136.61 12.18C137.39 12.93 137.79 13.83 137.79 14.87C137.79 15.97 137.4 16.9 136.63 17.65C135.85 18.41 134.9 18.79 133.78 18.79C132.66 18.79 131.72 18.41 130.94 17.64C130.16 16.88 129.77 15.95 129.77 14.86L129.76 14.87ZM121.34 19.43L121.61 18.54C120.78 18.25 120.13 17.77 119.65 17.1C119.17 16.43 118.93 15.69 118.93 14.89C118.93 13.83 119.32 12.93 120.11 12.18C120.9 11.43 121.84 11.05 122.95 11.05C123.66 11.05 124.4 11.21 125.16 11.53V12.65C124.38 12.27 123.65 12.08 122.99 12.08C122.15 12.08 121.43 12.35 120.85 12.9C120.27 13.45 119.98 14.11 119.98 14.91C119.98 15.71 120.28 16.39 120.87 16.94C121.46 17.48 122.2 17.75 123.09 17.75C123.74 17.75 124.42 17.55 125.15 17.14V18.27C124.49 18.62 123.78 18.8 123.01 18.8C122.79 18.8 122.56 18.78 122.3 18.74L122.21 19.03C122.52 19.07 122.76 19.16 122.93 19.32C123.1 19.47 123.18 19.66 123.18 19.88C123.18 20.21 123.03 20.47 122.72 20.68C122.41 20.88 122 20.98 121.48 20.98C121.26 20.98 121 20.96 120.71 20.91L120.77 20.24H120.9L121.21 20.26C121.89 20.26 122.23 20.12 122.23 19.83C122.23 19.57 121.96 19.45 121.42 19.45H121.33L121.34 19.43ZM108.47 11.28H109.46V15.75C109.46 16.41 109.62 16.92 109.94 17.29C110.26 17.65 110.71 17.83 111.29 17.83C111.87 17.83 112.32 17.66 112.64 17.33C112.96 17 113.12 16.53 113.12 15.92V11.28H114.11V15.85C114.11 16.74 113.86 17.45 113.35 17.99C112.84 18.52 112.16 18.79 111.32 18.79C110.48 18.79 109.76 18.52 109.24 17.98C108.72 17.44 108.46 16.64 108.46 15.59V11.28H108.47ZM100.56 11.28H101.55V17.56H103.91V18.55H100.55V11.28H100.56ZM94.34 14.92C94.34 14.12 94.05 13.44 93.47 12.89C92.89 12.34 92.18 12.07 91.33 12.07C90.48 12.07 89.84 12.35 89.27 12.91C88.7 13.47 88.41 14.14 88.41 14.92C88.41 15.7 88.7 16.38 89.29 16.93C89.88 17.48 90.6 17.75 91.45 17.75C92.24 17.75 92.91 17.47 93.48 16.91C94.05 16.35 94.33 15.68 94.33 14.91L94.34 14.92ZM87.37 14.87C87.37 13.82 87.77 12.92 88.56 12.17C89.35 11.42 90.3 11.05 91.42 11.05C92.54 11.05 93.44 11.43 94.23 12.18C95.01 12.93 95.41 13.83 95.41 14.87C95.41 15.97 95.02 16.9 94.25 17.65C93.47 18.41 92.52 18.79 91.4 18.79C90.28 18.79 89.34 18.41 88.56 17.64C87.78 16.88 87.39 15.95 87.39 14.86L87.37 14.87ZM82.56 12.08L81.75 12.73C81.54 12.51 81.34 12.35 81.17 12.24C81 12.13 80.75 12.08 80.42 12.08C80.06 12.08 79.77 12.16 79.55 12.32C79.33 12.48 79.22 12.69 79.22 12.94C79.22 13.16 79.32 13.35 79.51 13.52C79.7 13.69 80.03 13.87 80.5 14.08C80.97 14.28 81.33 14.47 81.59 14.64C81.85 14.81 82.06 15 82.23 15.21C82.4 15.42 82.52 15.64 82.6 15.87C82.68 16.1 82.72 16.35 82.72 16.6C82.72 17.2 82.5 17.72 82.06 18.14C81.62 18.57 81.09 18.78 80.46 18.78C79.83 18.78 79.31 18.61 78.85 18.28C78.38 17.95 78.03 17.45 77.77 16.78L78.76 16.5C79.12 17.32 79.67 17.73 80.42 17.73C80.78 17.73 81.08 17.62 81.32 17.41C81.56 17.19 81.68 16.92 81.68 16.6C81.68 16.4 81.62 16.21 81.49 16.01C81.37 15.81 81.21 15.65 81.03 15.52C80.84 15.39 80.55 15.24 80.14 15.07C79.73 14.9 79.42 14.74 79.2 14.6C78.98 14.46 78.79 14.3 78.63 14.1C78.47 13.91 78.35 13.72 78.28 13.53C78.21 13.34 78.17 13.14 78.17 12.92C78.17 12.4 78.38 11.96 78.8 11.59C79.22 11.22 79.73 11.04 80.32 11.04C80.72 11.04 81.12 11.13 81.53 11.3C81.94 11.47 82.27 11.73 82.55 12.08H82.56Z" fill="#14110B"/>
<path d="M192.04 25.73L190.94 26.61C190.65 26.31 190.39 26.08 190.15 25.94C189.92 25.79 189.57 25.72 189.13 25.72C188.64 25.72 188.25 25.83 187.94 26.05C187.64 26.27 187.48 26.55 187.48 26.9C187.48 27.2 187.61 27.47 187.88 27.69C188.15 27.92 188.6 28.17 189.24 28.45C189.88 28.72 190.38 28.98 190.73 29.22C191.09 29.46 191.38 29.72 191.61 30C191.84 30.29 192.01 30.59 192.12 30.91C192.23 31.22 192.29 31.56 192.29 31.92C192.29 32.75 191.99 33.45 191.39 34.03C190.79 34.61 190.06 34.9 189.2 34.9C188.34 34.9 187.63 34.67 186.99 34.22C186.35 33.76 185.86 33.08 185.52 32.17L186.88 31.78C187.37 32.9 188.13 33.46 189.14 33.46C189.63 33.46 190.04 33.31 190.37 33.02C190.7 32.72 190.86 32.35 190.86 31.9C190.86 31.63 190.77 31.36 190.6 31.09C190.43 30.82 190.22 30.59 189.97 30.42C189.72 30.24 189.31 30.04 188.76 29.81C188.21 29.58 187.78 29.36 187.48 29.17C187.18 28.98 186.92 28.76 186.7 28.49C186.48 28.23 186.32 27.97 186.22 27.71C186.12 27.45 186.07 27.17 186.07 26.87C186.07 26.16 186.36 25.55 186.93 25.05C187.5 24.55 188.2 24.3 189.02 24.3C189.56 24.3 190.11 24.42 190.67 24.65C191.23 24.88 191.69 25.24 192.06 25.72" fill="#14110B"/>
<path d="M178.7 24.63H177.34V34.59H178.7V24.63Z" fill="#14110B"/>
<path d="M140.38 23.64L141.42 21.46H143.26L141.53 23.64H140.38Z" fill="#14110B"/>
<path d="M165.17 24.63H170.69V25.99H166.53V28.46H170.69V29.82H166.53V33.23H170.69V34.59H165.17V24.63Z" fill="#14110B"/>
<path d="M156.07 29.12C157.02 28.56 157.49 27.86 157.49 27.01C157.49 26.32 157.16 25.75 156.51 25.3C155.85 24.85 155.01 24.62 153.98 24.62H152.41V34.58H154.04C155.34 34.58 156.37 34.32 157.14 33.79C157.91 33.26 158.3 32.57 158.3 31.71C158.3 30.47 157.56 29.61 156.07 29.11V29.12ZM153.76 25.83C153.85 25.82 153.97 25.81 154.09 25.81C154.69 25.81 155.17 25.94 155.53 26.19C155.89 26.44 156.07 26.78 156.07 27.2C156.07 27.69 155.87 28.06 155.47 28.34C155.08 28.61 154.5 28.76 153.76 28.77V25.82V25.83ZM156.24 32.81C155.82 33.19 155.03 33.37 153.87 33.37H153.76V29.96H154.21C155.03 29.96 155.68 30.11 156.15 30.42C156.62 30.73 156.86 31.14 156.86 31.65C156.86 32.04 156.65 32.42 156.23 32.8L156.24 32.81Z" fill="#14110B"/>
<path d="M141.17 24.25L136.5 34.59H137.91L139.06 32.04H143.29L144.45 34.59H145.87L141.17 24.25ZM139.58 30.9L141.18 27.37L142.78 30.9H139.58Z" fill="#14110B"/>
<path d="M125.06 24.63H131.18V25.99H128.79V34.59H127.43V25.99H125.06V24.63Z" fill="#14110B"/>
<path d="M109.83 24.23L117.2 31.79V24.63H118.56V35.05L111.19 27.51V34.59H109.83V24.23Z" fill="#14110B"/>
<path d="M101.45 25.86C100.37 24.83 99.1 24.31 97.61 24.31C96.12 24.31 94.79 24.82 93.7 25.85C92.62 26.87 92.08 28.1 92.08 29.54C92.08 30.98 92.61 32.29 93.68 33.34C94.75 34.39 96.04 34.91 97.56 34.91C99.08 34.91 100.4 34.39 101.46 33.35C102.52 32.31 103.05 31.04 103.05 29.54C103.05 28.12 102.51 26.89 101.44 25.86H101.45ZM100.45 32.35C99.67 33.12 98.74 33.5 97.67 33.5C96.5 33.5 95.52 33.12 94.71 32.37C93.9 31.62 93.5 30.7 93.5 29.61C93.5 28.52 93.89 27.62 94.68 26.86C95.46 26.09 96.41 25.71 97.51 25.71C98.67 25.71 99.64 26.09 100.44 26.84C101.23 27.59 101.63 28.52 101.63 29.61C101.63 30.7 101.24 31.58 100.46 32.34L100.45 32.35Z" fill="#14110B"/>
<path d="M85.79 24.97V26.51C84.72 25.99 83.73 25.73 82.83 25.73C81.67 25.73 80.7 26.1 79.91 26.85C79.12 27.6 78.72 28.51 78.72 29.6C78.72 30.69 79.12 31.63 79.94 32.37C80.75 33.11 81.76 33.48 82.98 33.48C83.87 33.48 84.8 33.2 85.79 32.65V34.2C84.89 34.68 83.91 34.92 82.86 34.92C81.32 34.92 80 34.4 78.9 33.36C77.8 32.32 77.26 31.06 77.26 29.59C77.26 28.12 77.8 26.91 78.87 25.88C79.95 24.85 81.24 24.34 82.76 24.34C83.73 24.34 84.74 24.56 85.79 25V24.97Z" fill="#14110B"/>
</g>
<defs>
<clipPath id="clip0_14_26">
<rect width="193" height="45" fill="white"/>
</clipPath>
</defs>
</svg>
