<svg width="63" height="62" viewBox="0 0 63 62" fill="none" xmlns="http://www.w3.org/2000/svg">
<path fill-rule="evenodd" clip-rule="evenodd" d="M38.3025 33.5771C37.9286 33.3989 36.1413 32.5225 35.8048 32.4111C35.4683 32.2923 35.2215 32.2329 34.9897 32.5894C34.7429 32.9459 34.0475 33.7554 33.8231 33.9931C33.6137 34.2381 33.4118 34.2604 33.0379 34.0822C32.679 33.9039 31.5124 33.5326 30.114 32.3071C29.0297 31.3565 28.3043 30.1756 28.0875 29.8191C27.8781 29.4626 28.0725 29.2695 28.252 29.0839C28.409 28.9279 28.6109 28.6754 28.7979 28.4526C28.8502 28.4006 28.8876 28.3337 28.925 28.2892C29.0148 28.1481 29.0671 28.0292 29.1568 27.8658C29.2765 27.6207 29.2241 27.4128 29.1344 27.2345C29.0447 27.0563 28.3043 25.2813 28.0127 24.5609C27.6986 23.8404 27.407 23.9667 27.1826 23.9667C26.9733 23.9518 26.7265 23.9296 26.4872 23.9296C26.2479 23.9296 25.8515 24.0187 25.515 24.3826C25.1935 24.7391 24.2512 25.6155 24.2512 27.3757C24.2512 27.799 24.3186 28.2075 24.4307 28.5937C24.8046 29.8637 25.5973 30.9034 25.7394 31.0891C25.9188 31.3342 28.2595 35.07 31.9611 36.5108C35.6627 37.9516 35.6627 37.4763 36.3283 37.4094C37.0013 37.3574 38.4894 36.5479 38.7885 35.7012C39.1026 34.8694 39.1026 34.149 39.0054 33.9931C38.9007 33.8519 38.6689 33.7628 38.31 33.5846L38.3025 33.5771ZM46.3414 30.2499C46.132 22.3402 39.5663 15.9679 31.4825 15.9679C23.3988 15.9679 16.9901 22.1842 16.6386 29.9825C16.6386 30.1905 16.6237 30.4058 16.6237 30.6212C16.6237 33.384 17.4014 35.976 18.7549 38.1893L16.0778 46.0395L24.3036 43.4475C26.4348 44.6136 28.8802 45.2746 31.4825 45.2746C39.6934 45.2746 46.3414 38.724 46.3414 30.6361V30.2647V30.2499Z" fill="white"/>
<path d="M31.2133 62C14.0064 62 0 48.0968 0 31C0 13.9032 14.0064 0 31.2133 0C33.3221 0 35.4384 0.207954 37.4874 0.623862C38.6091 0.854097 39.7383 1.14375 40.8375 1.50024C41.3909 1.67849 41.69 2.26521 41.5106 2.81481C41.3311 3.3644 40.7403 3.66148 40.187 3.48323C39.1625 3.15644 38.1155 2.88165 37.0686 2.66627C35.1542 2.28007 33.1875 2.07954 31.2133 2.07954C15.158 2.08697 2.10133 15.0544 2.10133 31C2.10133 46.9456 15.1655 59.913 31.2133 59.913C47.2612 59.913 60.3253 46.9382 60.3253 31C60.3253 26.2542 59.1438 21.5455 56.9078 17.3939C56.6311 16.8888 56.8256 16.2575 57.3416 15.9827C57.8501 15.7154 58.4857 15.9011 58.7624 16.4135C61.1628 20.8697 62.4266 25.92 62.4266 31.0074C62.4266 48.1042 48.4203 62.0074 31.2133 62.0074V62Z" fill="white"/>
<path d="M52.3612 10.6799C52.092 10.6799 51.8303 10.5834 51.6284 10.3828C50.888 9.65501 50.0954 8.9643 49.2728 8.31816C48.6446 7.82055 47.9865 7.35266 47.321 6.90704C46.8424 6.58769 46.7078 5.94154 47.0294 5.45879C47.3509 4.97604 48.0015 4.84978 48.4876 5.16914C49.198 5.64447 49.9084 6.1495 50.5814 6.67681C51.4638 7.36751 52.3089 8.11021 53.1015 8.89003C53.5128 9.29109 53.5203 9.95208 53.1165 10.3606C52.9146 10.5685 52.6379 10.6725 52.3687 10.6725L52.3612 10.6799Z" fill="white"/>
</svg>
